G75*
%MOIN*%
%OFA0B0*%
%FSLAX25Y25*%
%IPPOS*%
%LPD*%
%AMOC8*
5,1,8,0,0,1.08239X$1,22.5*
%
%ADD10R,0.05124X0.03550*%
%ADD11R,0.09900X0.09900*%
%ADD12C,0.09900*%
%ADD13R,0.08400X0.08400*%
%ADD14C,0.08400*%
%ADD15R,0.06699X0.08274*%
%ADD16R,0.07408X0.06384*%
%ADD17C,0.06000*%
%ADD18R,0.03550X0.05124*%
%ADD19C,0.06400*%
%ADD20OC8,0.08274*%
%ADD21R,0.10400X0.03400*%
%ADD22R,0.05400X0.02600*%
%ADD23R,0.02600X0.05400*%
%ADD24OC8,0.06400*%
%ADD25C,0.07400*%
D10*
X0058587Y0042051D03*
X0058587Y0049138D03*
X0013350Y0142327D03*
X0013350Y0149413D03*
X0059413Y0152248D03*
X0059413Y0145161D03*
D11*
X0064492Y0218035D03*
D12*
X0044807Y0218035D03*
X0025122Y0218035D03*
D13*
X0015083Y0054374D03*
D14*
X0015083Y0034689D03*
D15*
X0059492Y0094925D03*
X0069492Y0094925D03*
X0069492Y0132484D03*
X0059492Y0132484D03*
D16*
X0033154Y0130024D03*
X0023154Y0130024D03*
X0013154Y0130024D03*
X0013154Y0093449D03*
X0023154Y0093449D03*
X0033154Y0093449D03*
D17*
X0084901Y0157681D02*
X0090501Y0157681D01*
X0089901Y0177681D02*
X0095501Y0177681D01*
D18*
X0087720Y0132406D03*
X0080634Y0132406D03*
X0077878Y0072760D03*
X0084965Y0072760D03*
X0094413Y0072760D03*
X0101500Y0072760D03*
X0097563Y0019217D03*
X0090476Y0019217D03*
X0022366Y0078272D03*
X0015280Y0078272D03*
D19*
X0034807Y0173854D02*
X0034807Y0179854D01*
X0044807Y0179854D02*
X0044807Y0173854D01*
X0054807Y0173854D02*
X0054807Y0179854D01*
X0112673Y0177445D02*
X0118673Y0177445D01*
X0118673Y0157445D02*
X0112673Y0157445D01*
D20*
X0138508Y0103075D03*
X0199138Y0103075D03*
X0178665Y0218823D03*
X0158980Y0218823D03*
D21*
X0138390Y0062091D03*
X0138390Y0057091D03*
X0138390Y0052091D03*
X0138390Y0047091D03*
X0138390Y0042091D03*
X0138390Y0037091D03*
X0138390Y0032091D03*
X0138390Y0027091D03*
D22*
X0112888Y0035752D03*
X0112888Y0038902D03*
X0112888Y0042051D03*
X0112888Y0045201D03*
X0112888Y0048350D03*
X0112888Y0051500D03*
X0112888Y0054650D03*
X0112888Y0057799D03*
X0079088Y0057799D03*
X0079088Y0054650D03*
X0079088Y0051500D03*
X0079088Y0048350D03*
X0079088Y0045201D03*
X0079088Y0042051D03*
X0079088Y0038902D03*
X0079088Y0035752D03*
D23*
X0084965Y0029876D03*
X0088114Y0029876D03*
X0091264Y0029876D03*
X0094413Y0029876D03*
X0097563Y0029876D03*
X0100713Y0029876D03*
X0103862Y0029876D03*
X0107012Y0029876D03*
X0107012Y0063676D03*
X0103862Y0063676D03*
X0100713Y0063676D03*
X0097563Y0063676D03*
X0094413Y0063676D03*
X0091264Y0063676D03*
X0088114Y0063676D03*
X0084965Y0063676D03*
D24*
X0147760Y0078272D03*
X0157760Y0078272D03*
X0167760Y0078272D03*
X0177760Y0078272D03*
X0187760Y0078272D03*
X0197760Y0078272D03*
D25*
X0115831Y0206661D02*
X0115831Y0213661D01*
X0095831Y0213661D02*
X0095831Y0206661D01*
M02*
