%
M48
M72
T01C0.0236
T02C0.0320
T03C0.0360
T04C0.0394
T05C0.0400
T06C0.0512
%
T01
X12158Y4481
T02
X11583Y21016
X9583Y21016
T03
X9270Y17768
X8770Y15768
T04
X13851Y10307
X19914Y10307
X17867Y21882
X15898Y21882
T05
X11567Y17744
X11567Y15744
X5481Y17685
X4481Y17685
X3481Y17685
X14776Y7827
X15776Y7827
X16776Y7827
X17776Y7827
X18776Y7827
X19776Y7827
T06
X1508Y3469
X1508Y5437
X2512Y21804
X4481Y21804
X6449Y21804
M30
