G75*
%MOIN*%
%OFA0B0*%
%FSLAX25Y25*%
%IPPOS*%
%LPD*%
%AMOC8*
5,1,8,0,0,1.08239X$1,22.5*
%
%ADD10R,0.04724X0.03150*%
%ADD11R,0.09500X0.09500*%
%ADD12C,0.09500*%
%ADD13R,0.08000X0.08000*%
%ADD14C,0.08000*%
%ADD15R,0.06299X0.07874*%
%ADD16R,0.07008X0.05984*%
%ADD17C,0.05600*%
%ADD18R,0.03150X0.04724*%
%ADD19C,0.06000*%
%ADD20OC8,0.07874*%
%ADD21R,0.10000X0.03000*%
%ADD22R,0.05000X0.02200*%
%ADD23R,0.02200X0.05000*%
%ADD24OC8,0.06000*%
%ADD25C,0.07000*%
%ADD26C,0.07600*%
%ADD27C,0.02400*%
%ADD28C,0.03200*%
%ADD29C,0.01000*%
%ADD30R,0.03562X0.03562*%
D10*
X0058587Y0042051D03*
X0058587Y0049138D03*
X0013350Y0142327D03*
X0013350Y0149413D03*
X0059413Y0152248D03*
X0059413Y0145161D03*
D11*
X0064492Y0218035D03*
D12*
X0044807Y0218035D03*
X0025122Y0218035D03*
D13*
X0015083Y0054374D03*
D14*
X0015083Y0034689D03*
D15*
X0059492Y0094925D03*
X0069492Y0094925D03*
X0069492Y0132484D03*
X0059492Y0132484D03*
D16*
X0033154Y0130024D03*
X0023154Y0130024D03*
X0013154Y0130024D03*
X0013154Y0093449D03*
X0023154Y0093449D03*
X0033154Y0093449D03*
D17*
X0084901Y0157681D02*
X0090501Y0157681D01*
X0089901Y0177681D02*
X0095501Y0177681D01*
D18*
X0087720Y0132406D03*
X0080634Y0132406D03*
X0077878Y0072760D03*
X0084965Y0072760D03*
X0094413Y0072760D03*
X0101500Y0072760D03*
X0097563Y0019217D03*
X0090476Y0019217D03*
X0022366Y0078272D03*
X0015280Y0078272D03*
D19*
X0034807Y0173854D02*
X0034807Y0179854D01*
X0044807Y0179854D02*
X0044807Y0173854D01*
X0054807Y0173854D02*
X0054807Y0179854D01*
X0112673Y0177445D02*
X0118673Y0177445D01*
X0118673Y0157445D02*
X0112673Y0157445D01*
D20*
X0138508Y0103075D03*
X0199138Y0103075D03*
X0178665Y0218823D03*
X0158980Y0218823D03*
D21*
X0138390Y0062091D03*
X0138390Y0057091D03*
X0138390Y0052091D03*
X0138390Y0047091D03*
X0138390Y0042091D03*
X0138390Y0037091D03*
X0138390Y0032091D03*
X0138390Y0027091D03*
D22*
X0112888Y0035752D03*
X0112888Y0038902D03*
X0112888Y0042051D03*
X0112888Y0045201D03*
X0112888Y0048350D03*
X0112888Y0051500D03*
X0112888Y0054650D03*
X0112888Y0057799D03*
X0079088Y0057799D03*
X0079088Y0054650D03*
X0079088Y0051500D03*
X0079088Y0048350D03*
X0079088Y0045201D03*
X0079088Y0042051D03*
X0079088Y0038902D03*
X0079088Y0035752D03*
D23*
X0084965Y0029876D03*
X0088114Y0029876D03*
X0091264Y0029876D03*
X0094413Y0029876D03*
X0097563Y0029876D03*
X0100713Y0029876D03*
X0103862Y0029876D03*
X0107012Y0029876D03*
X0107012Y0063676D03*
X0103862Y0063676D03*
X0100713Y0063676D03*
X0097563Y0063676D03*
X0094413Y0063676D03*
X0091264Y0063676D03*
X0088114Y0063676D03*
X0084965Y0063676D03*
D24*
X0147760Y0078272D03*
X0157760Y0078272D03*
X0167760Y0078272D03*
X0177760Y0078272D03*
X0187760Y0078272D03*
X0197760Y0078272D03*
D25*
X0115831Y0206661D02*
X0115831Y0213661D01*
X0095831Y0213661D02*
X0095831Y0206661D01*
D26*
X0092642Y0192248D02*
X0092701Y0192189D01*
X0092701Y0177681D01*
X0080634Y0177878D01*
X0080634Y0175909D01*
X0059374Y0154650D01*
X0059374Y0142839D02*
X0059374Y0132996D01*
X0070201Y0132406D02*
X0078272Y0132484D01*
X0078272Y0132406D01*
X0090280Y0133783D02*
X0090294Y0157494D01*
X0115673Y0157445D01*
X0115713Y0157406D01*
X0141854Y0157406D01*
X0178665Y0194217D01*
X0178665Y0218823D01*
X0158980Y0218823D02*
X0132406Y0192248D01*
X0092642Y0192248D01*
X0080634Y0177878D02*
X0044807Y0213705D01*
X0044807Y0218035D01*
X0044807Y0192445D02*
X0013311Y0192445D01*
X0013311Y0151697D01*
X0013311Y0139886D02*
X0013154Y0130024D01*
X0033154Y0130024D02*
X0034807Y0130024D01*
X0034807Y0176854D01*
X0044807Y0176854D02*
X0044807Y0192445D01*
X0087701Y0157681D02*
X0090294Y0157494D01*
D27*
X0090280Y0133783D02*
X0087720Y0132406D01*
X0080634Y0132406D02*
X0078272Y0132406D01*
X0059492Y0132484D02*
X0059374Y0132996D01*
X0059374Y0142839D02*
X0059413Y0145161D01*
X0059413Y0152248D02*
X0059374Y0152287D01*
X0059374Y0154650D01*
X0013311Y0151697D02*
X0013311Y0149453D01*
X0013350Y0149413D01*
D28*
X0013350Y0142327D02*
X0013311Y0139886D01*
X0069492Y0132484D02*
X0070201Y0132406D01*
D29*
X0005437Y0025122D02*
X0011343Y0019217D01*
X0090476Y0019217D01*
X0093751Y0019359D02*
X0094288Y0019359D01*
X0094288Y0018361D02*
X0093751Y0018361D01*
X0093751Y0017362D02*
X0094288Y0017362D01*
X0094288Y0016364D02*
X0093751Y0016364D01*
X0093751Y0016150D02*
X0093751Y0022283D01*
X0092755Y0023279D01*
X0088197Y0023279D01*
X0087202Y0022283D01*
X0087202Y0021417D01*
X0012254Y0021417D01*
X0007637Y0026033D01*
X0007637Y0086790D01*
X0009604Y0088757D01*
X0017362Y0088757D01*
X0018336Y0089731D01*
X0018449Y0089536D01*
X0018729Y0089256D01*
X0019071Y0089059D01*
X0019452Y0088957D01*
X0022654Y0088957D01*
X0022654Y0092949D01*
X0023654Y0092949D01*
X0023654Y0088957D01*
X0026855Y0088957D01*
X0027236Y0089059D01*
X0027578Y0089256D01*
X0027858Y0089536D01*
X0027971Y0089731D01*
X0028945Y0088757D01*
X0037362Y0088757D01*
X0038357Y0089753D01*
X0038357Y0094020D01*
X0054843Y0094020D01*
X0054843Y0090791D01*
X0054945Y0090409D01*
X0055142Y0090067D01*
X0055421Y0089788D01*
X0055764Y0089590D01*
X0056145Y0089488D01*
X0058992Y0089488D01*
X0058992Y0094020D01*
X0059992Y0094020D01*
X0059992Y0089488D01*
X0062839Y0089488D01*
X0063221Y0089590D01*
X0063563Y0089788D01*
X0063842Y0090067D01*
X0064039Y0090409D01*
X0064142Y0090791D01*
X0064142Y0094020D01*
X0064643Y0094020D01*
X0064643Y0090284D01*
X0065638Y0089288D01*
X0073346Y0089288D01*
X0074342Y0090284D01*
X0074342Y0092725D01*
X0076849Y0092725D01*
X0082765Y0086809D01*
X0082765Y0076822D01*
X0082686Y0076822D01*
X0081690Y0075826D01*
X0081690Y0069693D01*
X0082686Y0068698D01*
X0082765Y0068698D01*
X0082765Y0067480D01*
X0082165Y0066880D01*
X0082165Y0063710D01*
X0080078Y0065797D01*
X0080078Y0068698D01*
X0080157Y0068698D01*
X0081153Y0069693D01*
X0081153Y0075826D01*
X0080157Y0076822D01*
X0075599Y0076822D01*
X0074603Y0075826D01*
X0074603Y0069693D01*
X0075599Y0068698D01*
X0075678Y0068698D01*
X0075678Y0063975D01*
X0079053Y0060599D01*
X0075884Y0060599D01*
X0074888Y0059603D01*
X0074888Y0056850D01*
X0020783Y0056850D01*
X0020783Y0059078D01*
X0019787Y0060074D01*
X0017283Y0060074D01*
X0017283Y0074209D01*
X0017558Y0074209D01*
X0018554Y0075205D01*
X0018554Y0081338D01*
X0017558Y0082334D01*
X0013001Y0082334D01*
X0012005Y0081338D01*
X0012005Y0075205D01*
X0012883Y0074327D01*
X0012883Y0060074D01*
X0010379Y0060074D01*
X0009383Y0059078D01*
X0009383Y0049670D01*
X0010379Y0048674D01*
X0019787Y0048674D01*
X0020783Y0049670D01*
X0020783Y0052450D01*
X0075088Y0052450D01*
X0075088Y0051550D01*
X0079038Y0051550D01*
X0079038Y0051450D01*
X0075088Y0051450D01*
X0075088Y0050355D01*
X0074888Y0050155D01*
X0074888Y0046546D01*
X0075088Y0046346D01*
X0075088Y0045251D01*
X0079038Y0045251D01*
X0079038Y0045151D01*
X0075088Y0045151D01*
X0075088Y0044251D01*
X0062649Y0044251D01*
X0062649Y0044330D01*
X0061653Y0045326D01*
X0055520Y0045326D01*
X0054524Y0044330D01*
X0054524Y0041100D01*
X0050313Y0036889D01*
X0020341Y0036889D01*
X0019915Y0037918D01*
X0018311Y0039521D01*
X0016216Y0040389D01*
X0013949Y0040389D01*
X0011854Y0039521D01*
X0010250Y0037918D01*
X0009383Y0035823D01*
X0009383Y0033555D01*
X0010250Y0031460D01*
X0011854Y0029857D01*
X0013949Y0028989D01*
X0016216Y0028989D01*
X0018311Y0029857D01*
X0019915Y0031460D01*
X0020341Y0032489D01*
X0052136Y0032489D01*
X0058423Y0038776D01*
X0061653Y0038776D01*
X0062649Y0039772D01*
X0062649Y0039851D01*
X0074888Y0039851D01*
X0074888Y0033948D01*
X0075884Y0032952D01*
X0082165Y0032952D01*
X0082165Y0026671D01*
X0083160Y0025676D01*
X0095363Y0025676D01*
X0095363Y0023279D01*
X0095284Y0023279D01*
X0094288Y0022283D01*
X0094288Y0016150D01*
X0095284Y0015154D01*
X0099842Y0015154D01*
X0100838Y0016150D01*
X0100838Y0022283D01*
X0099842Y0023279D01*
X0099763Y0023279D01*
X0099763Y0025676D01*
X0108816Y0025676D01*
X0109812Y0026671D01*
X0109812Y0027676D01*
X0129212Y0027676D01*
X0131151Y0029615D01*
X0131961Y0029615D01*
X0131986Y0029591D01*
X0131690Y0029295D01*
X0131690Y0024886D01*
X0132686Y0023891D01*
X0144094Y0023891D01*
X0145090Y0024886D01*
X0145090Y0029295D01*
X0144794Y0029591D01*
X0145090Y0029886D01*
X0145090Y0029891D01*
X0147175Y0029891D01*
X0171703Y0054418D01*
X0172991Y0055707D01*
X0172991Y0067518D01*
X0175640Y0070166D01*
X0182766Y0070166D01*
X0186171Y0073572D01*
X0189707Y0073572D01*
X0192460Y0076325D01*
X0192460Y0080218D01*
X0189707Y0082972D01*
X0185813Y0082972D01*
X0183060Y0080218D01*
X0183060Y0076683D01*
X0180943Y0074566D01*
X0180701Y0074566D01*
X0182460Y0076325D01*
X0182460Y0080218D01*
X0179707Y0082972D01*
X0175813Y0082972D01*
X0173060Y0080218D01*
X0173060Y0076683D01*
X0169054Y0072677D01*
X0169054Y0073572D01*
X0169707Y0073572D01*
X0172460Y0076325D01*
X0172460Y0080218D01*
X0169707Y0082972D01*
X0165813Y0082972D01*
X0163060Y0080218D01*
X0163060Y0076325D01*
X0164654Y0074730D01*
X0164654Y0061466D01*
X0147478Y0044291D01*
X0145090Y0044291D01*
X0145090Y0044295D01*
X0144794Y0044591D01*
X0145090Y0044886D01*
X0145090Y0049295D01*
X0144794Y0049591D01*
X0145090Y0049886D01*
X0145090Y0054295D01*
X0144636Y0054749D01*
X0144788Y0055012D01*
X0144890Y0055393D01*
X0144890Y0056841D01*
X0138640Y0056841D01*
X0138640Y0057341D01*
X0144890Y0057341D01*
X0144890Y0058788D01*
X0144788Y0059170D01*
X0144636Y0059432D01*
X0145090Y0059886D01*
X0145090Y0059930D01*
X0148474Y0059930D01*
X0149763Y0061219D01*
X0158942Y0070398D01*
X0162917Y0070398D01*
X0162917Y0109768D01*
X0208193Y0109768D01*
X0208193Y0069610D01*
X0178665Y0069610D01*
X0178665Y0011949D01*
X0091264Y0011949D01*
X0091264Y0015154D01*
X0092755Y0015154D01*
X0093751Y0016150D01*
X0092966Y0015365D02*
X0095073Y0015365D01*
X0091264Y0014367D02*
X0178665Y0014367D01*
X0178665Y0015365D02*
X0100053Y0015365D01*
X0100838Y0016364D02*
X0178665Y0016364D01*
X0178665Y0017362D02*
X0100838Y0017362D01*
X0100838Y0018361D02*
X0178665Y0018361D01*
X0178665Y0019359D02*
X0100838Y0019359D01*
X0100838Y0020358D02*
X0178665Y0020358D01*
X0178665Y0021356D02*
X0100838Y0021356D01*
X0100766Y0022355D02*
X0178665Y0022355D01*
X0178665Y0023353D02*
X0099763Y0023353D01*
X0099763Y0024352D02*
X0132224Y0024352D01*
X0131690Y0025350D02*
X0099763Y0025350D01*
X0095363Y0025350D02*
X0008320Y0025350D01*
X0007637Y0026349D02*
X0082487Y0026349D01*
X0082165Y0027347D02*
X0007637Y0027347D01*
X0007637Y0028346D02*
X0082165Y0028346D01*
X0082165Y0029344D02*
X0017074Y0029344D01*
X0018797Y0030343D02*
X0082165Y0030343D01*
X0082165Y0031341D02*
X0019796Y0031341D01*
X0020279Y0032340D02*
X0082165Y0032340D01*
X0075498Y0033338D02*
X0052985Y0033338D01*
X0053984Y0034337D02*
X0074888Y0034337D01*
X0074888Y0035335D02*
X0054982Y0035335D01*
X0055981Y0036334D02*
X0074888Y0036334D01*
X0074888Y0037332D02*
X0056979Y0037332D01*
X0057978Y0038331D02*
X0074888Y0038331D01*
X0074888Y0039329D02*
X0062206Y0039329D01*
X0058587Y0042051D02*
X0051224Y0034689D01*
X0015083Y0034689D01*
X0013091Y0029344D02*
X0007637Y0029344D01*
X0007637Y0030343D02*
X0011368Y0030343D01*
X0010369Y0031341D02*
X0007637Y0031341D01*
X0007637Y0032340D02*
X0009886Y0032340D01*
X0009473Y0033338D02*
X0007637Y0033338D01*
X0007637Y0034337D02*
X0009383Y0034337D01*
X0009383Y0035335D02*
X0007637Y0035335D01*
X0007637Y0036334D02*
X0009594Y0036334D01*
X0010008Y0037332D02*
X0007637Y0037332D01*
X0007637Y0038331D02*
X0010664Y0038331D01*
X0011662Y0039329D02*
X0007637Y0039329D01*
X0007637Y0040328D02*
X0013801Y0040328D01*
X0016364Y0040328D02*
X0053752Y0040328D01*
X0054524Y0041326D02*
X0007637Y0041326D01*
X0007637Y0042325D02*
X0054524Y0042325D01*
X0054524Y0043323D02*
X0007637Y0043323D01*
X0007637Y0044322D02*
X0054524Y0044322D01*
X0055515Y0045320D02*
X0007637Y0045320D01*
X0007637Y0046319D02*
X0055379Y0046319D01*
X0055303Y0046363D02*
X0055645Y0046165D01*
X0056027Y0046063D01*
X0058299Y0046063D01*
X0058299Y0048850D01*
X0058874Y0048850D01*
X0058874Y0046063D01*
X0061146Y0046063D01*
X0061528Y0046165D01*
X0061870Y0046363D01*
X0062149Y0046642D01*
X0062347Y0046984D01*
X0062449Y0047366D01*
X0062449Y0048850D01*
X0058874Y0048850D01*
X0058874Y0049425D01*
X0062449Y0049425D01*
X0062449Y0050910D01*
X0062347Y0051292D01*
X0062149Y0051634D01*
X0061870Y0051913D01*
X0061528Y0052110D01*
X0061146Y0052213D01*
X0058874Y0052213D01*
X0058874Y0049425D01*
X0058299Y0049425D01*
X0058299Y0048850D01*
X0054724Y0048850D01*
X0054724Y0047366D01*
X0054827Y0046984D01*
X0055024Y0046642D01*
X0055303Y0046363D01*
X0054737Y0047317D02*
X0007637Y0047317D01*
X0007637Y0048316D02*
X0054724Y0048316D01*
X0054724Y0049425D02*
X0058299Y0049425D01*
X0058299Y0052213D01*
X0056027Y0052213D01*
X0055645Y0052110D01*
X0055303Y0051913D01*
X0055024Y0051634D01*
X0054827Y0051292D01*
X0054724Y0050910D01*
X0054724Y0049425D01*
X0054724Y0050313D02*
X0020783Y0050313D01*
X0020783Y0051311D02*
X0054838Y0051311D01*
X0058299Y0051311D02*
X0058874Y0051311D01*
X0058874Y0050313D02*
X0058299Y0050313D01*
X0058299Y0049314D02*
X0020427Y0049314D01*
X0020783Y0052310D02*
X0075088Y0052310D01*
X0075088Y0051311D02*
X0062335Y0051311D01*
X0062449Y0050313D02*
X0075047Y0050313D01*
X0074888Y0049314D02*
X0058874Y0049314D01*
X0058874Y0048316D02*
X0058299Y0048316D01*
X0058299Y0047317D02*
X0058874Y0047317D01*
X0058874Y0046319D02*
X0058299Y0046319D01*
X0061794Y0046319D02*
X0075088Y0046319D01*
X0075088Y0045320D02*
X0061659Y0045320D01*
X0062649Y0044322D02*
X0075088Y0044322D01*
X0074888Y0047317D02*
X0062436Y0047317D01*
X0062449Y0048316D02*
X0074888Y0048316D01*
X0079088Y0048350D02*
X0084177Y0048350D01*
X0084177Y0058587D01*
X0077878Y0064886D01*
X0077878Y0072760D01*
X0081153Y0072280D02*
X0081690Y0072280D01*
X0081690Y0071282D02*
X0081153Y0071282D01*
X0081153Y0070283D02*
X0081690Y0070283D01*
X0082099Y0069285D02*
X0080744Y0069285D01*
X0080078Y0068286D02*
X0082765Y0068286D01*
X0082573Y0067288D02*
X0080078Y0067288D01*
X0080078Y0066289D02*
X0082165Y0066289D01*
X0082165Y0065291D02*
X0080584Y0065291D01*
X0081583Y0064292D02*
X0082165Y0064292D01*
X0084965Y0063676D02*
X0084965Y0072760D01*
X0084965Y0087720D01*
X0077760Y0094925D01*
X0069492Y0094925D01*
X0064643Y0093249D02*
X0064142Y0093249D01*
X0064142Y0092250D02*
X0064643Y0092250D01*
X0064643Y0091252D02*
X0064142Y0091252D01*
X0063950Y0090253D02*
X0064673Y0090253D01*
X0059992Y0090253D02*
X0058992Y0090253D01*
X0058992Y0091252D02*
X0059992Y0091252D01*
X0059992Y0092250D02*
X0058992Y0092250D01*
X0058992Y0093249D02*
X0059992Y0093249D01*
X0054843Y0093249D02*
X0038357Y0093249D01*
X0038357Y0092250D02*
X0054843Y0092250D01*
X0054843Y0091252D02*
X0038357Y0091252D01*
X0038357Y0090253D02*
X0055035Y0090253D01*
X0037860Y0089255D02*
X0080319Y0089255D01*
X0081317Y0088256D02*
X0009104Y0088256D01*
X0008105Y0087258D02*
X0082316Y0087258D01*
X0082765Y0086259D02*
X0007637Y0086259D01*
X0007637Y0085261D02*
X0082765Y0085261D01*
X0082765Y0084262D02*
X0007637Y0084262D01*
X0007637Y0083264D02*
X0082765Y0083264D01*
X0082765Y0082265D02*
X0017627Y0082265D01*
X0018554Y0081267D02*
X0019425Y0081267D01*
X0019394Y0081213D02*
X0019291Y0080831D01*
X0019291Y0078559D01*
X0022079Y0078559D01*
X0022079Y0082134D01*
X0020594Y0082134D01*
X0020212Y0082032D01*
X0019870Y0081834D01*
X0019591Y0081555D01*
X0019394Y0081213D01*
X0019291Y0080268D02*
X0018554Y0080268D01*
X0018554Y0079270D02*
X0019291Y0079270D01*
X0018554Y0078271D02*
X0022079Y0078271D01*
X0022079Y0077984D02*
X0019291Y0077984D01*
X0019291Y0075712D01*
X0019394Y0075330D01*
X0019591Y0074988D01*
X0019870Y0074709D01*
X0020212Y0074512D01*
X0020594Y0074409D01*
X0022079Y0074409D01*
X0022079Y0077984D01*
X0022654Y0077984D01*
X0022654Y0078559D01*
X0025441Y0078559D01*
X0025441Y0080831D01*
X0025339Y0081213D01*
X0025141Y0081555D01*
X0024862Y0081834D01*
X0024520Y0082032D01*
X0024138Y0082134D01*
X0022654Y0082134D01*
X0022654Y0078559D01*
X0022079Y0078559D01*
X0022079Y0077984D01*
X0022654Y0077984D02*
X0022654Y0074409D01*
X0024138Y0074409D01*
X0024520Y0074512D01*
X0024862Y0074709D01*
X0025141Y0074988D01*
X0025339Y0075330D01*
X0025441Y0075712D01*
X0025441Y0077984D01*
X0022654Y0077984D01*
X0022654Y0078271D02*
X0082765Y0078271D01*
X0082765Y0077273D02*
X0025441Y0077273D01*
X0025441Y0076274D02*
X0075051Y0076274D01*
X0074603Y0075276D02*
X0025307Y0075276D01*
X0022654Y0075276D02*
X0022079Y0075276D01*
X0022079Y0076274D02*
X0022654Y0076274D01*
X0022654Y0077273D02*
X0022079Y0077273D01*
X0022079Y0079270D02*
X0022654Y0079270D01*
X0022654Y0080268D02*
X0022079Y0080268D01*
X0022079Y0081267D02*
X0022654Y0081267D01*
X0025308Y0081267D02*
X0082765Y0081267D01*
X0082765Y0080268D02*
X0025441Y0080268D01*
X0025441Y0079270D02*
X0082765Y0079270D01*
X0082138Y0076274D02*
X0080705Y0076274D01*
X0081153Y0075276D02*
X0081690Y0075276D01*
X0081690Y0074277D02*
X0081153Y0074277D01*
X0081153Y0073279D02*
X0081690Y0073279D01*
X0075012Y0069285D02*
X0017283Y0069285D01*
X0017283Y0070283D02*
X0074603Y0070283D01*
X0074603Y0071282D02*
X0017283Y0071282D01*
X0017283Y0072280D02*
X0074603Y0072280D01*
X0074603Y0073279D02*
X0017283Y0073279D01*
X0017626Y0074277D02*
X0074603Y0074277D01*
X0075678Y0068286D02*
X0017283Y0068286D01*
X0017283Y0067288D02*
X0075678Y0067288D01*
X0075678Y0066289D02*
X0017283Y0066289D01*
X0017283Y0065291D02*
X0075678Y0065291D01*
X0075678Y0064292D02*
X0017283Y0064292D01*
X0017283Y0063294D02*
X0076359Y0063294D01*
X0077357Y0062295D02*
X0017283Y0062295D01*
X0017283Y0061297D02*
X0078356Y0061297D01*
X0075583Y0060298D02*
X0017283Y0060298D01*
X0020561Y0059300D02*
X0074888Y0059300D01*
X0074888Y0058301D02*
X0020783Y0058301D01*
X0020783Y0057303D02*
X0074888Y0057303D01*
X0079088Y0054650D02*
X0015358Y0054650D01*
X0015083Y0054374D01*
X0015083Y0078075D01*
X0015280Y0078272D01*
X0018554Y0077273D02*
X0019291Y0077273D01*
X0019291Y0076274D02*
X0018554Y0076274D01*
X0018554Y0075276D02*
X0019425Y0075276D01*
X0012883Y0074277D02*
X0007637Y0074277D01*
X0007637Y0073279D02*
X0012883Y0073279D01*
X0012883Y0072280D02*
X0007637Y0072280D01*
X0007637Y0071282D02*
X0012883Y0071282D01*
X0012883Y0070283D02*
X0007637Y0070283D01*
X0007637Y0069285D02*
X0012883Y0069285D01*
X0012883Y0068286D02*
X0007637Y0068286D01*
X0007637Y0067288D02*
X0012883Y0067288D01*
X0012883Y0066289D02*
X0007637Y0066289D01*
X0007637Y0065291D02*
X0012883Y0065291D01*
X0012883Y0064292D02*
X0007637Y0064292D01*
X0007637Y0063294D02*
X0012883Y0063294D01*
X0012883Y0062295D02*
X0007637Y0062295D01*
X0007637Y0061297D02*
X0012883Y0061297D01*
X0012883Y0060298D02*
X0007637Y0060298D01*
X0007637Y0059300D02*
X0009604Y0059300D01*
X0009383Y0058301D02*
X0007637Y0058301D01*
X0007637Y0057303D02*
X0009383Y0057303D01*
X0009383Y0056304D02*
X0007637Y0056304D01*
X0007637Y0055306D02*
X0009383Y0055306D01*
X0009383Y0054307D02*
X0007637Y0054307D01*
X0007637Y0053309D02*
X0009383Y0053309D01*
X0009383Y0052310D02*
X0007637Y0052310D01*
X0007637Y0051311D02*
X0009383Y0051311D01*
X0009383Y0050313D02*
X0007637Y0050313D01*
X0007637Y0049314D02*
X0009738Y0049314D01*
X0018503Y0039329D02*
X0052754Y0039329D01*
X0051755Y0038331D02*
X0019502Y0038331D01*
X0020157Y0037332D02*
X0050756Y0037332D01*
X0058587Y0042051D02*
X0079088Y0042051D01*
X0084177Y0042051D01*
X0084177Y0048350D01*
X0084177Y0042051D02*
X0087327Y0038902D01*
X0112888Y0038902D01*
X0107799Y0038902D01*
X0107799Y0058587D01*
X0111303Y0062091D01*
X0111736Y0062091D01*
X0111736Y0068429D01*
X0107406Y0072760D01*
X0101500Y0072760D01*
X0097957Y0078272D02*
X0147760Y0078272D01*
X0157760Y0078272D02*
X0157760Y0072327D01*
X0147563Y0062130D01*
X0138429Y0062130D01*
X0138390Y0062091D01*
X0111736Y0062091D01*
X0112888Y0057799D02*
X0125122Y0057799D01*
X0130634Y0052287D01*
X0138193Y0052287D01*
X0138390Y0052091D01*
X0138140Y0056841D02*
X0131890Y0056841D01*
X0131890Y0055393D01*
X0131992Y0055012D01*
X0132144Y0054749D01*
X0131882Y0054487D01*
X0131545Y0054487D01*
X0126142Y0059891D01*
X0131690Y0059891D01*
X0131690Y0059886D01*
X0132144Y0059432D01*
X0131992Y0059170D01*
X0131890Y0058788D01*
X0131890Y0057341D01*
X0138140Y0057341D01*
X0138140Y0056841D01*
X0138140Y0057303D02*
X0128730Y0057303D01*
X0127731Y0058301D02*
X0131890Y0058301D01*
X0132067Y0059300D02*
X0126733Y0059300D01*
X0129728Y0056304D02*
X0131890Y0056304D01*
X0131913Y0055306D02*
X0130727Y0055306D01*
X0122760Y0054650D02*
X0130240Y0047169D01*
X0138311Y0047169D01*
X0138390Y0047091D01*
X0138390Y0042091D02*
X0148390Y0042091D01*
X0166854Y0060555D01*
X0166854Y0075398D01*
X0167760Y0078272D01*
X0172460Y0078271D02*
X0173060Y0078271D01*
X0173060Y0077273D02*
X0172460Y0077273D01*
X0172409Y0076274D02*
X0172651Y0076274D01*
X0171653Y0075276D02*
X0171411Y0075276D01*
X0170654Y0074277D02*
X0170412Y0074277D01*
X0169656Y0073279D02*
X0169054Y0073279D01*
X0168823Y0069335D02*
X0177760Y0078272D01*
X0181411Y0081267D02*
X0184108Y0081267D01*
X0183110Y0080268D02*
X0182410Y0080268D01*
X0182460Y0079270D02*
X0183060Y0079270D01*
X0183060Y0078271D02*
X0182460Y0078271D01*
X0182460Y0077273D02*
X0183060Y0077273D01*
X0182651Y0076274D02*
X0182409Y0076274D01*
X0181653Y0075276D02*
X0181411Y0075276D01*
X0181854Y0072366D02*
X0187760Y0078272D01*
X0191411Y0081267D02*
X0194391Y0081267D01*
X0195390Y0082265D02*
X0190413Y0082265D01*
X0192410Y0080268D02*
X0193393Y0080268D01*
X0193260Y0080136D02*
X0193260Y0078772D01*
X0197260Y0078772D01*
X0197260Y0082772D01*
X0195896Y0082772D01*
X0193260Y0080136D01*
X0193260Y0079270D02*
X0192460Y0079270D01*
X0192460Y0078271D02*
X0197260Y0078271D01*
X0197260Y0077772D02*
X0193260Y0077772D01*
X0193260Y0076408D01*
X0195896Y0073772D01*
X0197260Y0073772D01*
X0197260Y0077772D01*
X0197260Y0078772D01*
X0198260Y0078772D01*
X0198260Y0082772D01*
X0199624Y0082772D01*
X0202260Y0080136D01*
X0202260Y0078772D01*
X0198260Y0078772D01*
X0198260Y0077772D01*
X0202260Y0077772D01*
X0202260Y0076408D01*
X0199624Y0073772D01*
X0198260Y0073772D01*
X0198260Y0077772D01*
X0197260Y0077772D01*
X0197260Y0077273D02*
X0198260Y0077273D01*
X0198260Y0078271D02*
X0208193Y0078271D01*
X0208193Y0077273D02*
X0202260Y0077273D01*
X0202126Y0076274D02*
X0208193Y0076274D01*
X0208193Y0075276D02*
X0201128Y0075276D01*
X0200129Y0074277D02*
X0208193Y0074277D01*
X0208193Y0073279D02*
X0185878Y0073279D01*
X0184880Y0072280D02*
X0208193Y0072280D01*
X0208193Y0071282D02*
X0183881Y0071282D01*
X0182883Y0070283D02*
X0208193Y0070283D01*
X0208193Y0079270D02*
X0202260Y0079270D01*
X0202127Y0080268D02*
X0208193Y0080268D01*
X0208193Y0081267D02*
X0201129Y0081267D01*
X0200130Y0082265D02*
X0208193Y0082265D01*
X0208193Y0083264D02*
X0162917Y0083264D01*
X0162917Y0084262D02*
X0208193Y0084262D01*
X0208193Y0085261D02*
X0162917Y0085261D01*
X0162917Y0086259D02*
X0208193Y0086259D01*
X0208193Y0087258D02*
X0162917Y0087258D01*
X0162917Y0088256D02*
X0208193Y0088256D01*
X0208193Y0089255D02*
X0162917Y0089255D01*
X0162917Y0090253D02*
X0208193Y0090253D01*
X0208193Y0091252D02*
X0162917Y0091252D01*
X0162917Y0092250D02*
X0208193Y0092250D01*
X0208193Y0093249D02*
X0162917Y0093249D01*
X0162917Y0094247D02*
X0208193Y0094247D01*
X0208193Y0095246D02*
X0162917Y0095246D01*
X0162917Y0096245D02*
X0208193Y0096245D01*
X0208193Y0097243D02*
X0162917Y0097243D01*
X0162917Y0098242D02*
X0196282Y0098242D01*
X0196886Y0097638D02*
X0193701Y0100823D01*
X0193701Y0102591D01*
X0198653Y0102591D01*
X0198653Y0103559D01*
X0193701Y0103559D01*
X0193701Y0105327D01*
X0196886Y0108512D01*
X0198654Y0108512D01*
X0198654Y0103559D01*
X0199622Y0103559D01*
X0199622Y0108512D01*
X0201390Y0108512D01*
X0204575Y0105327D01*
X0204575Y0103559D01*
X0199622Y0103559D01*
X0199622Y0102591D01*
X0204575Y0102591D01*
X0204575Y0100823D01*
X0201390Y0097638D01*
X0199622Y0097638D01*
X0199622Y0102590D01*
X0198654Y0102590D01*
X0198654Y0097638D01*
X0196886Y0097638D01*
X0198654Y0098242D02*
X0199622Y0098242D01*
X0199622Y0099240D02*
X0198654Y0099240D01*
X0198654Y0100239D02*
X0199622Y0100239D01*
X0199622Y0101237D02*
X0198654Y0101237D01*
X0198654Y0102236D02*
X0199622Y0102236D01*
X0199622Y0103234D02*
X0208193Y0103234D01*
X0208193Y0102236D02*
X0204575Y0102236D01*
X0204575Y0101237D02*
X0208193Y0101237D01*
X0208193Y0100239D02*
X0203991Y0100239D01*
X0202992Y0099240D02*
X0208193Y0099240D01*
X0208193Y0098242D02*
X0201994Y0098242D01*
X0198653Y0103234D02*
X0162917Y0103234D01*
X0162917Y0102236D02*
X0193701Y0102236D01*
X0193701Y0101237D02*
X0162917Y0101237D01*
X0162917Y0100239D02*
X0194285Y0100239D01*
X0195283Y0099240D02*
X0162917Y0099240D01*
X0162917Y0104233D02*
X0193701Y0104233D01*
X0193701Y0105231D02*
X0162917Y0105231D01*
X0162917Y0106230D02*
X0194604Y0106230D01*
X0195602Y0107228D02*
X0162917Y0107228D01*
X0162917Y0108227D02*
X0196601Y0108227D01*
X0198654Y0108227D02*
X0199622Y0108227D01*
X0199622Y0107228D02*
X0198654Y0107228D01*
X0198654Y0106230D02*
X0199622Y0106230D01*
X0199622Y0105231D02*
X0198654Y0105231D01*
X0198654Y0104233D02*
X0199622Y0104233D01*
X0202674Y0107228D02*
X0208193Y0107228D01*
X0208193Y0106230D02*
X0203672Y0106230D01*
X0204575Y0105231D02*
X0208193Y0105231D01*
X0208193Y0104233D02*
X0204575Y0104233D01*
X0201675Y0108227D02*
X0208193Y0108227D01*
X0208193Y0109225D02*
X0162917Y0109225D01*
X0146776Y0103075D02*
X0157799Y0092051D01*
X0157799Y0078311D01*
X0157760Y0078272D01*
X0162917Y0078271D02*
X0163060Y0078271D01*
X0163060Y0077273D02*
X0162917Y0077273D01*
X0162917Y0076274D02*
X0163110Y0076274D01*
X0162917Y0075276D02*
X0164109Y0075276D01*
X0164654Y0074277D02*
X0162917Y0074277D01*
X0162917Y0073279D02*
X0164654Y0073279D01*
X0164654Y0072280D02*
X0162917Y0072280D01*
X0162917Y0071282D02*
X0164654Y0071282D01*
X0164654Y0070283D02*
X0158828Y0070283D01*
X0157829Y0069285D02*
X0164654Y0069285D01*
X0164654Y0068286D02*
X0156831Y0068286D01*
X0155832Y0067288D02*
X0164654Y0067288D01*
X0164654Y0066289D02*
X0154833Y0066289D01*
X0153835Y0065291D02*
X0164654Y0065291D01*
X0164654Y0064292D02*
X0152836Y0064292D01*
X0151838Y0063294D02*
X0164654Y0063294D01*
X0164654Y0062295D02*
X0150839Y0062295D01*
X0149841Y0061297D02*
X0164485Y0061297D01*
X0163486Y0060298D02*
X0148842Y0060298D01*
X0144712Y0059300D02*
X0162488Y0059300D01*
X0161489Y0058301D02*
X0144890Y0058301D01*
X0144890Y0056304D02*
X0159492Y0056304D01*
X0158493Y0055306D02*
X0144866Y0055306D01*
X0145077Y0054307D02*
X0157495Y0054307D01*
X0156496Y0053309D02*
X0145090Y0053309D01*
X0145090Y0052310D02*
X0155498Y0052310D01*
X0154499Y0051311D02*
X0145090Y0051311D01*
X0145090Y0050313D02*
X0153501Y0050313D01*
X0152502Y0049314D02*
X0145070Y0049314D01*
X0145090Y0048316D02*
X0151504Y0048316D01*
X0150505Y0047317D02*
X0145090Y0047317D01*
X0145090Y0046319D02*
X0149507Y0046319D01*
X0148508Y0045320D02*
X0145090Y0045320D01*
X0145063Y0044322D02*
X0147510Y0044322D01*
X0154617Y0037332D02*
X0178665Y0037332D01*
X0178665Y0036334D02*
X0153618Y0036334D01*
X0152620Y0035335D02*
X0178665Y0035335D01*
X0178665Y0034337D02*
X0151621Y0034337D01*
X0150623Y0033338D02*
X0178665Y0033338D01*
X0178665Y0032340D02*
X0149624Y0032340D01*
X0148626Y0031341D02*
X0178665Y0031341D01*
X0178665Y0030343D02*
X0147627Y0030343D01*
X0146264Y0032091D02*
X0170791Y0056618D01*
X0170791Y0068429D01*
X0174728Y0072366D01*
X0181854Y0072366D01*
X0178665Y0069285D02*
X0174758Y0069285D01*
X0173760Y0068286D02*
X0178665Y0068286D01*
X0178665Y0067288D02*
X0172991Y0067288D01*
X0172991Y0066289D02*
X0178665Y0066289D01*
X0178665Y0065291D02*
X0172991Y0065291D01*
X0172991Y0064292D02*
X0178665Y0064292D01*
X0178665Y0063294D02*
X0172991Y0063294D01*
X0172991Y0062295D02*
X0178665Y0062295D01*
X0178665Y0061297D02*
X0172991Y0061297D01*
X0172991Y0060298D02*
X0178665Y0060298D01*
X0178665Y0059300D02*
X0172991Y0059300D01*
X0172991Y0058301D02*
X0178665Y0058301D01*
X0178665Y0057303D02*
X0172991Y0057303D01*
X0172991Y0056304D02*
X0178665Y0056304D01*
X0178665Y0055306D02*
X0172590Y0055306D01*
X0171592Y0054307D02*
X0178665Y0054307D01*
X0178665Y0053309D02*
X0170593Y0053309D01*
X0169595Y0052310D02*
X0178665Y0052310D01*
X0178665Y0051311D02*
X0168596Y0051311D01*
X0167597Y0050313D02*
X0178665Y0050313D01*
X0178665Y0049314D02*
X0166599Y0049314D01*
X0165600Y0048316D02*
X0178665Y0048316D01*
X0178665Y0047317D02*
X0164602Y0047317D01*
X0163603Y0046319D02*
X0178665Y0046319D01*
X0178665Y0045320D02*
X0162605Y0045320D01*
X0161606Y0044322D02*
X0178665Y0044322D01*
X0178665Y0043323D02*
X0160608Y0043323D01*
X0159609Y0042325D02*
X0178665Y0042325D01*
X0178665Y0041326D02*
X0158611Y0041326D01*
X0157612Y0040328D02*
X0178665Y0040328D01*
X0178665Y0039329D02*
X0156614Y0039329D01*
X0155615Y0038331D02*
X0178665Y0038331D01*
X0178665Y0029344D02*
X0145040Y0029344D01*
X0145090Y0028346D02*
X0178665Y0028346D01*
X0178665Y0027347D02*
X0145090Y0027347D01*
X0145090Y0026349D02*
X0178665Y0026349D01*
X0178665Y0025350D02*
X0145090Y0025350D01*
X0144555Y0024352D02*
X0178665Y0024352D01*
X0178665Y0013368D02*
X0091264Y0013368D01*
X0091264Y0012370D02*
X0178665Y0012370D01*
X0146264Y0032091D02*
X0138390Y0032091D01*
X0138114Y0031815D01*
X0130240Y0031815D01*
X0128301Y0029876D01*
X0107012Y0029876D01*
X0109812Y0027347D02*
X0131690Y0027347D01*
X0131690Y0026349D02*
X0109489Y0026349D01*
X0103862Y0029876D02*
X0103862Y0032996D01*
X0105043Y0034571D01*
X0108193Y0034571D01*
X0109374Y0033390D01*
X0127091Y0033390D01*
X0130791Y0037091D01*
X0138390Y0037091D01*
X0147012Y0037091D01*
X0147169Y0036933D01*
X0168823Y0058587D01*
X0168823Y0069335D01*
X0172460Y0079270D02*
X0173060Y0079270D01*
X0173110Y0080268D02*
X0172410Y0080268D01*
X0171411Y0081267D02*
X0174108Y0081267D01*
X0175107Y0082265D02*
X0170413Y0082265D01*
X0165107Y0082265D02*
X0162917Y0082265D01*
X0162917Y0081267D02*
X0164108Y0081267D01*
X0163110Y0080268D02*
X0162917Y0080268D01*
X0162917Y0079270D02*
X0163060Y0079270D01*
X0180413Y0082265D02*
X0185107Y0082265D01*
X0191411Y0075276D02*
X0194392Y0075276D01*
X0193393Y0076274D02*
X0192409Y0076274D01*
X0192460Y0077273D02*
X0193260Y0077273D01*
X0195390Y0074277D02*
X0190412Y0074277D01*
X0197260Y0074277D02*
X0198260Y0074277D01*
X0198260Y0075276D02*
X0197260Y0075276D01*
X0197260Y0076274D02*
X0198260Y0076274D01*
X0198260Y0079270D02*
X0197260Y0079270D01*
X0197260Y0080268D02*
X0198260Y0080268D01*
X0198260Y0081267D02*
X0197260Y0081267D01*
X0197260Y0082265D02*
X0198260Y0082265D01*
X0160491Y0057303D02*
X0138640Y0057303D01*
X0131690Y0044969D02*
X0129329Y0044969D01*
X0128040Y0046258D01*
X0121849Y0052450D01*
X0117088Y0052450D01*
X0117088Y0049696D01*
X0116888Y0049496D01*
X0116888Y0048400D01*
X0112938Y0048400D01*
X0112938Y0048300D01*
X0116888Y0048300D01*
X0116888Y0047205D01*
X0117088Y0047005D01*
X0117088Y0037952D01*
X0123817Y0037952D01*
X0128828Y0042962D01*
X0130116Y0044251D01*
X0131690Y0044251D01*
X0131690Y0044295D01*
X0131986Y0044591D01*
X0131690Y0044886D01*
X0131690Y0044969D01*
X0131717Y0044322D02*
X0117088Y0044322D01*
X0117088Y0045320D02*
X0128978Y0045320D01*
X0127979Y0046319D02*
X0117088Y0046319D01*
X0116888Y0047317D02*
X0126981Y0047317D01*
X0125982Y0048316D02*
X0112938Y0048316D01*
X0112888Y0048350D02*
X0118035Y0048350D01*
X0121579Y0044807D01*
X0117088Y0043323D02*
X0129189Y0043323D01*
X0128190Y0042325D02*
X0117088Y0042325D01*
X0117088Y0041326D02*
X0127191Y0041326D01*
X0126193Y0040328D02*
X0117088Y0040328D01*
X0117088Y0039329D02*
X0125194Y0039329D01*
X0124196Y0038331D02*
X0117088Y0038331D01*
X0112888Y0035752D02*
X0124728Y0035752D01*
X0131028Y0042051D01*
X0138350Y0042051D01*
X0138390Y0042091D01*
X0131739Y0029344D02*
X0130881Y0029344D01*
X0131690Y0028346D02*
X0129882Y0028346D01*
X0124984Y0049314D02*
X0116888Y0049314D01*
X0117088Y0050313D02*
X0123985Y0050313D01*
X0122987Y0051311D02*
X0117088Y0051311D01*
X0117088Y0052310D02*
X0121988Y0052310D01*
X0122760Y0054650D02*
X0112888Y0054650D01*
X0094413Y0063676D02*
X0094413Y0072760D01*
X0094413Y0074728D01*
X0097957Y0078272D01*
X0079320Y0090253D02*
X0074311Y0090253D01*
X0074342Y0091252D02*
X0078322Y0091252D01*
X0077323Y0092250D02*
X0074342Y0092250D01*
X0028447Y0089255D02*
X0027576Y0089255D01*
X0023654Y0089255D02*
X0022654Y0089255D01*
X0022654Y0090253D02*
X0023654Y0090253D01*
X0023654Y0091252D02*
X0022654Y0091252D01*
X0022654Y0092250D02*
X0023654Y0092250D01*
X0018731Y0089255D02*
X0017860Y0089255D01*
X0013154Y0093449D02*
X0011185Y0093449D01*
X0005437Y0087701D01*
X0005437Y0025122D01*
X0009319Y0024352D02*
X0095363Y0024352D01*
X0095363Y0023353D02*
X0010317Y0023353D01*
X0011316Y0022355D02*
X0087273Y0022355D01*
X0093679Y0022355D02*
X0094360Y0022355D01*
X0094288Y0021356D02*
X0093751Y0021356D01*
X0093751Y0020358D02*
X0094288Y0020358D01*
X0097563Y0019217D02*
X0097563Y0029876D01*
X0138508Y0103075D02*
X0146776Y0103075D01*
X0012932Y0082265D02*
X0007637Y0082265D01*
X0007637Y0081267D02*
X0012005Y0081267D01*
X0012005Y0080268D02*
X0007637Y0080268D01*
X0007637Y0079270D02*
X0012005Y0079270D01*
X0012005Y0078271D02*
X0007637Y0078271D01*
X0007637Y0077273D02*
X0012005Y0077273D01*
X0012005Y0076274D02*
X0007637Y0076274D01*
X0007637Y0075276D02*
X0012005Y0075276D01*
D30*
X0121579Y0044807D03*
M02*
