G75*
%MOIN*%
%OFA0B0*%
%FSLAX25Y25*%
%IPPOS*%
%LPD*%
%AMOC8*
5,1,8,0,0,1.08239X$1,22.5*
%
%ADD10R,0.04724X0.03150*%
%ADD11R,0.06299X0.07874*%
%ADD12R,0.07008X0.05984*%
%ADD13R,0.03150X0.04724*%
%ADD14R,0.10000X0.03000*%
%ADD15R,0.05000X0.02200*%
%ADD16R,0.02200X0.05000*%
D10*
X0058587Y0042051D03*
X0058587Y0049138D03*
X0013350Y0142327D03*
X0013350Y0149413D03*
X0059413Y0152248D03*
X0059413Y0145161D03*
D11*
X0059492Y0132484D03*
X0069492Y0132484D03*
X0069492Y0094925D03*
X0059492Y0094925D03*
D12*
X0033154Y0093449D03*
X0023154Y0093449D03*
X0013154Y0093449D03*
X0013154Y0130024D03*
X0023154Y0130024D03*
X0033154Y0130024D03*
D13*
X0080634Y0132406D03*
X0087720Y0132406D03*
X0084965Y0072760D03*
X0077878Y0072760D03*
X0094413Y0072760D03*
X0101500Y0072760D03*
X0097563Y0019217D03*
X0090476Y0019217D03*
X0022366Y0078272D03*
X0015280Y0078272D03*
D14*
X0138390Y0062091D03*
X0138390Y0057091D03*
X0138390Y0052091D03*
X0138390Y0047091D03*
X0138390Y0042091D03*
X0138390Y0037091D03*
X0138390Y0032091D03*
X0138390Y0027091D03*
D15*
X0112888Y0035752D03*
X0112888Y0038902D03*
X0112888Y0042051D03*
X0112888Y0045201D03*
X0112888Y0048350D03*
X0112888Y0051500D03*
X0112888Y0054650D03*
X0112888Y0057799D03*
X0079088Y0057799D03*
X0079088Y0054650D03*
X0079088Y0051500D03*
X0079088Y0048350D03*
X0079088Y0045201D03*
X0079088Y0042051D03*
X0079088Y0038902D03*
X0079088Y0035752D03*
D16*
X0084965Y0029876D03*
X0088114Y0029876D03*
X0091264Y0029876D03*
X0094413Y0029876D03*
X0097563Y0029876D03*
X0100713Y0029876D03*
X0103862Y0029876D03*
X0107012Y0029876D03*
X0107012Y0063676D03*
X0103862Y0063676D03*
X0100713Y0063676D03*
X0097563Y0063676D03*
X0094413Y0063676D03*
X0091264Y0063676D03*
X0088114Y0063676D03*
X0084965Y0063676D03*
M02*
