G75*
%MOIN*%
%OFA0B0*%
%FSLAX25Y25*%
%IPPOS*%
%LPD*%
%AMOC8*
5,1,8,0,0,1.08239X$1,22.5*
%
%ADD10C,0.00300*%
%ADD11C,0.00600*%
%ADD12C,0.00100*%
%ADD13C,0.00800*%
%ADD14C,0.00500*%
%ADD15R,0.04823X0.07677*%
%ADD16C,0.00200*%
%ADD17C,0.02174*%
%ADD18R,0.04823X0.06890*%
%ADD19C,0.02000*%
%ADD20R,0.42000X0.02500*%
%ADD21R,0.07500X0.02500*%
%ADD22R,0.03000X0.02500*%
%ADD23R,0.07000X0.02500*%
%ADD24C,0.02000*%
%ADD25C,0.00400*%
%ADD26C,0.02400*%
%ADD27R,0.03900X0.01800*%
%ADD28R,0.01800X0.03900*%
%ADD29R,0.02000X0.02000*%
D10*
X0040637Y0067327D02*
X0043111Y0069344D01*
X0044107Y0068831D01*
X0045520Y0072241D01*
X0044988Y0072525D01*
X0044522Y0072908D01*
X0044139Y0073374D01*
X0043855Y0073906D01*
X0043680Y0074483D01*
X0043621Y0075083D01*
X0043686Y0075711D01*
X0043878Y0076313D01*
X0044188Y0076863D01*
X0044605Y0077337D01*
X0045109Y0077717D01*
X0045681Y0077986D01*
X0046295Y0078132D01*
X0046927Y0078150D01*
X0047548Y0078038D01*
X0048134Y0077802D01*
X0048659Y0077451D01*
X0049102Y0077001D01*
X0049443Y0076469D01*
X0049668Y0075879D01*
X0049768Y0075255D01*
X0049738Y0074624D01*
X0049581Y0074013D01*
X0049301Y0073446D01*
X0048912Y0072949D01*
X0048430Y0072541D01*
X0047874Y0072241D01*
X0049287Y0068831D01*
X0050283Y0069344D01*
X0052757Y0067327D01*
X0054453Y0069023D01*
X0052435Y0071497D01*
X0052949Y0072493D01*
X0053290Y0073561D01*
X0056466Y0073883D01*
X0056466Y0076282D01*
X0053290Y0076605D01*
X0052949Y0077672D01*
X0052435Y0078669D01*
X0054453Y0081143D01*
X0052757Y0082839D01*
X0050283Y0080821D01*
X0049286Y0081334D01*
X0048219Y0081676D01*
X0047896Y0084852D01*
X0045497Y0084852D01*
X0045175Y0081676D01*
X0044107Y0081334D01*
X0043111Y0080821D01*
X0040637Y0082839D01*
X0038941Y0081143D01*
X0040958Y0078669D01*
X0040445Y0077672D01*
X0040104Y0076605D01*
X0036928Y0076282D01*
X0036928Y0073883D01*
X0040104Y0073561D01*
X0040445Y0072493D01*
X0040958Y0071497D01*
X0038941Y0069023D01*
X0040637Y0067327D01*
X0040380Y0067584D02*
X0040952Y0067584D01*
X0041318Y0067882D02*
X0040082Y0067882D01*
X0039783Y0068181D02*
X0041684Y0068181D01*
X0042050Y0068479D02*
X0039485Y0068479D01*
X0039186Y0068778D02*
X0042416Y0068778D01*
X0042783Y0069076D02*
X0038985Y0069076D01*
X0039228Y0069375D02*
X0044332Y0069375D01*
X0044456Y0069673D02*
X0039471Y0069673D01*
X0039715Y0069972D02*
X0044580Y0069972D01*
X0044703Y0070270D02*
X0039958Y0070270D01*
X0040202Y0070569D02*
X0044827Y0070569D01*
X0044951Y0070867D02*
X0040445Y0070867D01*
X0040688Y0071166D02*
X0045074Y0071166D01*
X0045198Y0071464D02*
X0040932Y0071464D01*
X0040821Y0071763D02*
X0045322Y0071763D01*
X0045445Y0072061D02*
X0040668Y0072061D01*
X0040514Y0072360D02*
X0045297Y0072360D01*
X0044826Y0072658D02*
X0040392Y0072658D01*
X0040297Y0072957D02*
X0044481Y0072957D01*
X0044236Y0073255D02*
X0040201Y0073255D01*
X0040106Y0073554D02*
X0044043Y0073554D01*
X0043883Y0073852D02*
X0037229Y0073852D01*
X0036928Y0074151D02*
X0043781Y0074151D01*
X0043690Y0074449D02*
X0036928Y0074449D01*
X0036928Y0074748D02*
X0043654Y0074748D01*
X0043624Y0075047D02*
X0036928Y0075047D01*
X0036928Y0075345D02*
X0043648Y0075345D01*
X0043679Y0075644D02*
X0036928Y0075644D01*
X0036928Y0075942D02*
X0043759Y0075942D01*
X0043855Y0076241D02*
X0036928Y0076241D01*
X0039457Y0076539D02*
X0044005Y0076539D01*
X0044174Y0076838D02*
X0040178Y0076838D01*
X0040274Y0077136D02*
X0044428Y0077136D01*
X0044734Y0077435D02*
X0040369Y0077435D01*
X0040477Y0077733D02*
X0045143Y0077733D01*
X0045873Y0078032D02*
X0040630Y0078032D01*
X0040784Y0078330D02*
X0052610Y0078330D01*
X0052763Y0078032D02*
X0047565Y0078032D01*
X0048237Y0077733D02*
X0052917Y0077733D01*
X0053025Y0077435D02*
X0048676Y0077435D01*
X0048969Y0077136D02*
X0053120Y0077136D01*
X0053216Y0076838D02*
X0049206Y0076838D01*
X0049398Y0076539D02*
X0053937Y0076539D01*
X0056466Y0076241D02*
X0049530Y0076241D01*
X0049644Y0075942D02*
X0056466Y0075942D01*
X0056466Y0075644D02*
X0049706Y0075644D01*
X0049753Y0075345D02*
X0056466Y0075345D01*
X0056466Y0075047D02*
X0049758Y0075047D01*
X0049744Y0074748D02*
X0056466Y0074748D01*
X0056466Y0074449D02*
X0049693Y0074449D01*
X0049616Y0074151D02*
X0056466Y0074151D01*
X0056165Y0073852D02*
X0049502Y0073852D01*
X0049354Y0073554D02*
X0053288Y0073554D01*
X0053192Y0073255D02*
X0049152Y0073255D01*
X0048919Y0072957D02*
X0053097Y0072957D01*
X0053001Y0072658D02*
X0048568Y0072658D01*
X0048094Y0072360D02*
X0052880Y0072360D01*
X0052726Y0072061D02*
X0047948Y0072061D01*
X0048072Y0071763D02*
X0052572Y0071763D01*
X0052462Y0071464D02*
X0048196Y0071464D01*
X0048319Y0071166D02*
X0052705Y0071166D01*
X0052949Y0070867D02*
X0048443Y0070867D01*
X0048567Y0070569D02*
X0053192Y0070569D01*
X0053436Y0070270D02*
X0048690Y0070270D01*
X0048814Y0069972D02*
X0053679Y0069972D01*
X0053922Y0069673D02*
X0048938Y0069673D01*
X0049061Y0069375D02*
X0054166Y0069375D01*
X0054409Y0069076D02*
X0050611Y0069076D01*
X0050977Y0068778D02*
X0054208Y0068778D01*
X0053909Y0068479D02*
X0051343Y0068479D01*
X0051709Y0068181D02*
X0053611Y0068181D01*
X0053312Y0067882D02*
X0052075Y0067882D01*
X0052442Y0067584D02*
X0053014Y0067584D01*
X0049763Y0069076D02*
X0049185Y0069076D01*
X0044209Y0069076D02*
X0043631Y0069076D01*
X0040938Y0078629D02*
X0052456Y0078629D01*
X0052646Y0078927D02*
X0040747Y0078927D01*
X0040504Y0079226D02*
X0052890Y0079226D01*
X0053133Y0079524D02*
X0040261Y0079524D01*
X0040017Y0079823D02*
X0053377Y0079823D01*
X0053620Y0080121D02*
X0039774Y0080121D01*
X0039530Y0080420D02*
X0053863Y0080420D01*
X0054107Y0080718D02*
X0039287Y0080718D01*
X0039044Y0081017D02*
X0042871Y0081017D01*
X0042505Y0081315D02*
X0039114Y0081315D01*
X0039412Y0081614D02*
X0042139Y0081614D01*
X0041773Y0081912D02*
X0039711Y0081912D01*
X0040009Y0082211D02*
X0041407Y0082211D01*
X0041041Y0082509D02*
X0040308Y0082509D01*
X0040606Y0082808D02*
X0040675Y0082808D01*
X0043491Y0081017D02*
X0049903Y0081017D01*
X0050522Y0081017D02*
X0054350Y0081017D01*
X0054280Y0081315D02*
X0050888Y0081315D01*
X0051255Y0081614D02*
X0053982Y0081614D01*
X0053683Y0081912D02*
X0051621Y0081912D01*
X0051987Y0082211D02*
X0053384Y0082211D01*
X0053086Y0082509D02*
X0052353Y0082509D01*
X0052719Y0082808D02*
X0052787Y0082808D01*
X0049323Y0081315D02*
X0044070Y0081315D01*
X0044980Y0081614D02*
X0048413Y0081614D01*
X0048195Y0081912D02*
X0045199Y0081912D01*
X0045229Y0082211D02*
X0048165Y0082211D01*
X0048134Y0082509D02*
X0045259Y0082509D01*
X0045290Y0082808D02*
X0048104Y0082808D01*
X0048074Y0083106D02*
X0045320Y0083106D01*
X0045350Y0083405D02*
X0048043Y0083405D01*
X0048013Y0083703D02*
X0045381Y0083703D01*
X0045411Y0084002D02*
X0047983Y0084002D01*
X0047952Y0084300D02*
X0045441Y0084300D01*
X0045472Y0084599D02*
X0047922Y0084599D01*
X0145040Y0063159D02*
X0145523Y0063643D01*
X0146491Y0063643D01*
X0146975Y0063159D01*
X0146975Y0062676D01*
X0146491Y0062192D01*
X0146975Y0061708D01*
X0146975Y0061224D01*
X0146491Y0060741D01*
X0145523Y0060741D01*
X0145040Y0061224D01*
X0146007Y0062192D02*
X0146491Y0062192D01*
X0147986Y0061708D02*
X0147986Y0063643D01*
X0147986Y0061708D02*
X0148954Y0060741D01*
X0149921Y0061708D01*
X0149921Y0063643D01*
X0150933Y0063159D02*
X0151417Y0063643D01*
X0152384Y0063643D01*
X0152868Y0063159D01*
X0152868Y0062676D01*
X0152384Y0062192D01*
X0152868Y0061708D01*
X0152868Y0061224D01*
X0152384Y0060741D01*
X0151417Y0060741D01*
X0150933Y0061224D01*
X0151900Y0062192D02*
X0152384Y0062192D01*
X0152384Y0058643D02*
X0150933Y0058643D01*
X0150933Y0055741D01*
X0152384Y0055741D01*
X0152868Y0056224D01*
X0152868Y0058159D01*
X0152384Y0058643D01*
X0149921Y0058643D02*
X0149921Y0055741D01*
X0147986Y0058643D01*
X0147986Y0055741D01*
X0146975Y0056224D02*
X0146975Y0057192D01*
X0146007Y0057192D01*
X0145040Y0058159D02*
X0145040Y0056224D01*
X0145523Y0055741D01*
X0146491Y0055741D01*
X0146975Y0056224D01*
X0146975Y0058159D02*
X0146491Y0058643D01*
X0145523Y0058643D01*
X0145040Y0058159D01*
X0145523Y0053643D02*
X0145040Y0053159D01*
X0145040Y0051224D01*
X0145523Y0050741D01*
X0146491Y0050741D01*
X0146975Y0051224D01*
X0147986Y0050741D02*
X0149921Y0050741D01*
X0148954Y0052192D02*
X0147986Y0052192D01*
X0146975Y0053159D02*
X0146491Y0053643D01*
X0145523Y0053643D01*
X0147986Y0053643D02*
X0147986Y0050741D01*
X0148470Y0048643D02*
X0147986Y0048159D01*
X0147986Y0047676D01*
X0148470Y0047192D01*
X0149438Y0047192D01*
X0149921Y0046708D01*
X0149921Y0046224D01*
X0149438Y0045741D01*
X0148470Y0045741D01*
X0147986Y0046224D01*
X0146975Y0046224D02*
X0146491Y0045741D01*
X0145523Y0045741D01*
X0145040Y0046224D01*
X0145040Y0048159D01*
X0145523Y0048643D01*
X0146491Y0048643D01*
X0146975Y0048159D01*
X0148470Y0048643D02*
X0149438Y0048643D01*
X0149921Y0048159D01*
X0150933Y0048643D02*
X0152868Y0045741D01*
X0152868Y0048643D01*
X0150933Y0048643D02*
X0150933Y0045741D01*
X0150933Y0043643D02*
X0150933Y0040741D01*
X0150933Y0041708D02*
X0152868Y0043643D01*
X0151417Y0042192D02*
X0152868Y0040741D01*
X0152384Y0038643D02*
X0151417Y0038643D01*
X0150933Y0038159D01*
X0150933Y0037676D01*
X0151417Y0037192D01*
X0152384Y0037192D01*
X0152868Y0036708D01*
X0152868Y0036224D01*
X0152384Y0035741D01*
X0151417Y0035741D01*
X0150933Y0036224D01*
X0149921Y0036224D02*
X0149921Y0038159D01*
X0149438Y0038643D01*
X0148470Y0038643D01*
X0147986Y0038159D01*
X0147986Y0036224D01*
X0148470Y0035741D01*
X0149438Y0035741D01*
X0149921Y0036224D01*
X0150434Y0033643D02*
X0149951Y0033159D01*
X0149951Y0032676D01*
X0150434Y0032192D01*
X0151402Y0032192D01*
X0151886Y0031708D01*
X0151886Y0031224D01*
X0151402Y0030741D01*
X0150434Y0030741D01*
X0149951Y0031224D01*
X0148954Y0030741D02*
X0147986Y0030741D01*
X0148470Y0030741D02*
X0148470Y0033643D01*
X0147986Y0033643D02*
X0148954Y0033643D01*
X0150434Y0033643D02*
X0151402Y0033643D01*
X0151886Y0033159D01*
X0152897Y0033159D02*
X0152897Y0031224D01*
X0153381Y0030741D01*
X0154348Y0030741D01*
X0154832Y0031224D01*
X0154832Y0033159D01*
X0154348Y0033643D01*
X0153381Y0033643D01*
X0152897Y0033159D01*
X0153879Y0035741D02*
X0154847Y0035741D01*
X0154363Y0035741D02*
X0154363Y0038643D01*
X0153879Y0038643D02*
X0154847Y0038643D01*
X0152868Y0038159D02*
X0152384Y0038643D01*
X0149921Y0041224D02*
X0149438Y0040741D01*
X0148470Y0040741D01*
X0147986Y0041224D01*
X0147986Y0043159D01*
X0148470Y0043643D01*
X0149438Y0043643D01*
X0149921Y0043159D01*
X0146975Y0043159D02*
X0146491Y0043643D01*
X0145523Y0043643D01*
X0145040Y0043159D01*
X0145040Y0042676D01*
X0145523Y0042192D01*
X0146491Y0042192D01*
X0146975Y0041708D01*
X0146975Y0041224D01*
X0146491Y0040741D01*
X0145523Y0040741D01*
X0145040Y0041224D01*
X0145040Y0038643D02*
X0146007Y0037676D01*
X0146975Y0038643D01*
X0146975Y0035741D01*
X0145040Y0035741D02*
X0145040Y0038643D01*
X0145040Y0033643D02*
X0146007Y0032676D01*
X0146975Y0033643D01*
X0146975Y0030741D01*
X0145040Y0030741D02*
X0145040Y0033643D01*
X0145040Y0028643D02*
X0146007Y0028643D01*
X0145523Y0028643D02*
X0145523Y0025741D01*
X0145040Y0025741D02*
X0146007Y0025741D01*
X0147004Y0025741D02*
X0147004Y0028643D01*
X0148455Y0028643D01*
X0148939Y0028159D01*
X0148939Y0027192D01*
X0148455Y0026708D01*
X0147004Y0026708D01*
X0147972Y0026708D02*
X0148939Y0025741D01*
X0149951Y0026224D02*
X0149951Y0028159D01*
X0150434Y0028643D01*
X0151402Y0028643D01*
X0151886Y0028159D01*
X0151886Y0026224D01*
X0151402Y0025741D01*
X0150434Y0025741D01*
X0149951Y0026224D01*
X0150918Y0026708D02*
X0151886Y0025741D01*
X0149921Y0053643D02*
X0147986Y0053643D01*
X0065104Y0190563D02*
X0063169Y0190563D01*
X0063169Y0193466D01*
X0063631Y0195363D02*
X0063631Y0197298D01*
X0062663Y0198266D01*
X0061696Y0197298D01*
X0061696Y0195363D01*
X0061696Y0196815D02*
X0063631Y0196815D01*
X0064642Y0197782D02*
X0064642Y0195847D01*
X0065126Y0195363D01*
X0066093Y0195363D01*
X0066577Y0195847D01*
X0066577Y0197782D02*
X0066093Y0198266D01*
X0065126Y0198266D01*
X0064642Y0197782D01*
X0046892Y0197782D02*
X0046408Y0198266D01*
X0045441Y0198266D01*
X0044957Y0197782D01*
X0044957Y0195847D01*
X0045441Y0195363D01*
X0046408Y0195363D01*
X0046892Y0195847D01*
X0045419Y0193466D02*
X0045419Y0190563D01*
X0043484Y0193466D01*
X0043484Y0190563D01*
X0043946Y0195363D02*
X0043946Y0197298D01*
X0042978Y0198266D01*
X0042011Y0197298D01*
X0042011Y0195363D01*
X0042011Y0196815D02*
X0043946Y0196815D01*
X0030154Y0195847D02*
X0030154Y0197782D01*
X0029670Y0198266D01*
X0028219Y0198266D01*
X0028219Y0195363D01*
X0029670Y0195363D01*
X0030154Y0195847D01*
X0027207Y0195363D02*
X0027207Y0197298D01*
X0026240Y0198266D01*
X0025272Y0197298D01*
X0025272Y0195363D01*
X0024261Y0195847D02*
X0024261Y0197782D01*
X0023777Y0198266D01*
X0022809Y0198266D01*
X0022326Y0197782D01*
X0022326Y0195847D01*
X0022809Y0195363D01*
X0023777Y0195363D01*
X0024261Y0195847D01*
X0025272Y0196815D02*
X0027207Y0196815D01*
X0023799Y0193466D02*
X0023799Y0190563D01*
X0025734Y0190563D01*
X0021314Y0195363D02*
X0019379Y0195363D01*
X0019379Y0198266D01*
D11*
X0025807Y0183854D02*
X0063807Y0183854D01*
X0064807Y0182854D01*
X0064807Y0171354D01*
X0083201Y0178181D02*
X0083201Y0157181D01*
X0083203Y0157055D01*
X0083209Y0156930D01*
X0083219Y0156805D01*
X0083233Y0156680D01*
X0083250Y0156555D01*
X0083272Y0156431D01*
X0083297Y0156308D01*
X0083327Y0156186D01*
X0083360Y0156065D01*
X0083397Y0155945D01*
X0083437Y0155826D01*
X0083482Y0155709D01*
X0083530Y0155592D01*
X0083582Y0155478D01*
X0083637Y0155365D01*
X0083696Y0155254D01*
X0083758Y0155145D01*
X0083824Y0155038D01*
X0083893Y0154933D01*
X0083965Y0154830D01*
X0084040Y0154729D01*
X0084119Y0154631D01*
X0084201Y0154536D01*
X0084285Y0154443D01*
X0084373Y0154353D01*
X0084463Y0154265D01*
X0084556Y0154181D01*
X0084651Y0154099D01*
X0084749Y0154020D01*
X0084850Y0153945D01*
X0084953Y0153873D01*
X0085058Y0153804D01*
X0085165Y0153738D01*
X0085274Y0153676D01*
X0085385Y0153617D01*
X0085498Y0153562D01*
X0085612Y0153510D01*
X0085729Y0153462D01*
X0085846Y0153417D01*
X0085965Y0153377D01*
X0086085Y0153340D01*
X0086206Y0153307D01*
X0086328Y0153277D01*
X0086451Y0153252D01*
X0086575Y0153230D01*
X0086700Y0153213D01*
X0086825Y0153199D01*
X0086950Y0153189D01*
X0087075Y0153183D01*
X0087201Y0153181D01*
X0093201Y0153181D01*
X0093327Y0153183D01*
X0093452Y0153189D01*
X0093577Y0153199D01*
X0093702Y0153213D01*
X0093827Y0153230D01*
X0093951Y0153252D01*
X0094074Y0153277D01*
X0094196Y0153307D01*
X0094317Y0153340D01*
X0094437Y0153377D01*
X0094556Y0153417D01*
X0094673Y0153462D01*
X0094790Y0153510D01*
X0094904Y0153562D01*
X0095017Y0153617D01*
X0095128Y0153676D01*
X0095237Y0153738D01*
X0095344Y0153804D01*
X0095449Y0153873D01*
X0095552Y0153945D01*
X0095653Y0154020D01*
X0095751Y0154099D01*
X0095846Y0154181D01*
X0095939Y0154265D01*
X0096029Y0154353D01*
X0096117Y0154443D01*
X0096201Y0154536D01*
X0096283Y0154631D01*
X0096362Y0154729D01*
X0096437Y0154830D01*
X0096509Y0154933D01*
X0096578Y0155038D01*
X0096644Y0155145D01*
X0096706Y0155254D01*
X0096765Y0155365D01*
X0096820Y0155478D01*
X0096872Y0155592D01*
X0096920Y0155709D01*
X0096965Y0155826D01*
X0097005Y0155945D01*
X0097042Y0156065D01*
X0097075Y0156186D01*
X0097105Y0156308D01*
X0097130Y0156431D01*
X0097152Y0156555D01*
X0097169Y0156680D01*
X0097183Y0156805D01*
X0097193Y0156930D01*
X0097199Y0157055D01*
X0097201Y0157181D01*
X0097201Y0178181D01*
X0097199Y0178307D01*
X0097193Y0178432D01*
X0097183Y0178557D01*
X0097169Y0178682D01*
X0097152Y0178807D01*
X0097130Y0178931D01*
X0097105Y0179054D01*
X0097075Y0179176D01*
X0097042Y0179297D01*
X0097005Y0179417D01*
X0096965Y0179536D01*
X0096920Y0179653D01*
X0096872Y0179770D01*
X0096820Y0179884D01*
X0096765Y0179997D01*
X0096706Y0180108D01*
X0096644Y0180217D01*
X0096578Y0180324D01*
X0096509Y0180429D01*
X0096437Y0180532D01*
X0096362Y0180633D01*
X0096283Y0180731D01*
X0096201Y0180826D01*
X0096117Y0180919D01*
X0096029Y0181009D01*
X0095939Y0181097D01*
X0095846Y0181181D01*
X0095751Y0181263D01*
X0095653Y0181342D01*
X0095552Y0181417D01*
X0095449Y0181489D01*
X0095344Y0181558D01*
X0095237Y0181624D01*
X0095128Y0181686D01*
X0095017Y0181745D01*
X0094904Y0181800D01*
X0094790Y0181852D01*
X0094673Y0181900D01*
X0094556Y0181945D01*
X0094437Y0181985D01*
X0094317Y0182022D01*
X0094196Y0182055D01*
X0094074Y0182085D01*
X0093951Y0182110D01*
X0093827Y0182132D01*
X0093702Y0182149D01*
X0093577Y0182163D01*
X0093452Y0182173D01*
X0093327Y0182179D01*
X0093201Y0182181D01*
X0087201Y0182181D01*
X0087075Y0182179D01*
X0086950Y0182173D01*
X0086825Y0182163D01*
X0086700Y0182149D01*
X0086575Y0182132D01*
X0086451Y0182110D01*
X0086328Y0182085D01*
X0086206Y0182055D01*
X0086085Y0182022D01*
X0085965Y0181985D01*
X0085846Y0181945D01*
X0085729Y0181900D01*
X0085612Y0181852D01*
X0085498Y0181800D01*
X0085385Y0181745D01*
X0085274Y0181686D01*
X0085165Y0181624D01*
X0085058Y0181558D01*
X0084953Y0181489D01*
X0084850Y0181417D01*
X0084749Y0181342D01*
X0084651Y0181263D01*
X0084556Y0181181D01*
X0084463Y0181097D01*
X0084373Y0181009D01*
X0084285Y0180919D01*
X0084201Y0180826D01*
X0084119Y0180731D01*
X0084040Y0180633D01*
X0083965Y0180532D01*
X0083893Y0180429D01*
X0083824Y0180324D01*
X0083758Y0180217D01*
X0083696Y0180108D01*
X0083637Y0179997D01*
X0083582Y0179884D01*
X0083530Y0179770D01*
X0083482Y0179653D01*
X0083437Y0179536D01*
X0083397Y0179417D01*
X0083360Y0179297D01*
X0083327Y0179176D01*
X0083297Y0179054D01*
X0083272Y0178931D01*
X0083250Y0178807D01*
X0083233Y0178682D01*
X0083219Y0178557D01*
X0083209Y0178432D01*
X0083203Y0178307D01*
X0083201Y0178181D01*
X0107673Y0181945D02*
X0107673Y0152945D01*
X0107675Y0152847D01*
X0107681Y0152749D01*
X0107690Y0152651D01*
X0107704Y0152554D01*
X0107721Y0152457D01*
X0107742Y0152361D01*
X0107767Y0152266D01*
X0107795Y0152172D01*
X0107828Y0152080D01*
X0107863Y0151988D01*
X0107903Y0151898D01*
X0107945Y0151810D01*
X0107992Y0151723D01*
X0108041Y0151639D01*
X0108094Y0151556D01*
X0108150Y0151476D01*
X0108210Y0151397D01*
X0108272Y0151321D01*
X0108337Y0151248D01*
X0108405Y0151177D01*
X0108476Y0151109D01*
X0108549Y0151044D01*
X0108625Y0150982D01*
X0108704Y0150922D01*
X0108784Y0150866D01*
X0108867Y0150813D01*
X0108951Y0150764D01*
X0109038Y0150717D01*
X0109126Y0150675D01*
X0109216Y0150635D01*
X0109308Y0150600D01*
X0109400Y0150567D01*
X0109494Y0150539D01*
X0109589Y0150514D01*
X0109685Y0150493D01*
X0109782Y0150476D01*
X0109879Y0150462D01*
X0109977Y0150453D01*
X0110075Y0150447D01*
X0110173Y0150445D01*
X0121173Y0150445D01*
X0121271Y0150447D01*
X0121369Y0150453D01*
X0121467Y0150462D01*
X0121564Y0150476D01*
X0121661Y0150493D01*
X0121757Y0150514D01*
X0121852Y0150539D01*
X0121946Y0150567D01*
X0122038Y0150600D01*
X0122130Y0150635D01*
X0122220Y0150675D01*
X0122308Y0150717D01*
X0122395Y0150764D01*
X0122479Y0150813D01*
X0122562Y0150866D01*
X0122642Y0150922D01*
X0122721Y0150982D01*
X0122797Y0151044D01*
X0122870Y0151109D01*
X0122941Y0151177D01*
X0123009Y0151248D01*
X0123074Y0151321D01*
X0123136Y0151397D01*
X0123196Y0151476D01*
X0123252Y0151556D01*
X0123305Y0151639D01*
X0123354Y0151723D01*
X0123401Y0151810D01*
X0123443Y0151898D01*
X0123483Y0151988D01*
X0123518Y0152080D01*
X0123551Y0152172D01*
X0123579Y0152266D01*
X0123604Y0152361D01*
X0123625Y0152457D01*
X0123642Y0152554D01*
X0123656Y0152651D01*
X0123665Y0152749D01*
X0123671Y0152847D01*
X0123673Y0152945D01*
X0123673Y0181945D01*
X0123671Y0182043D01*
X0123665Y0182141D01*
X0123656Y0182239D01*
X0123642Y0182336D01*
X0123625Y0182433D01*
X0123604Y0182529D01*
X0123579Y0182624D01*
X0123551Y0182718D01*
X0123518Y0182810D01*
X0123483Y0182902D01*
X0123443Y0182992D01*
X0123401Y0183080D01*
X0123354Y0183167D01*
X0123305Y0183251D01*
X0123252Y0183334D01*
X0123196Y0183414D01*
X0123136Y0183493D01*
X0123074Y0183569D01*
X0123009Y0183642D01*
X0122941Y0183713D01*
X0122870Y0183781D01*
X0122797Y0183846D01*
X0122721Y0183908D01*
X0122642Y0183968D01*
X0122562Y0184024D01*
X0122479Y0184077D01*
X0122395Y0184126D01*
X0122308Y0184173D01*
X0122220Y0184215D01*
X0122130Y0184255D01*
X0122038Y0184290D01*
X0121946Y0184323D01*
X0121852Y0184351D01*
X0121757Y0184376D01*
X0121661Y0184397D01*
X0121564Y0184414D01*
X0121467Y0184428D01*
X0121369Y0184437D01*
X0121271Y0184443D01*
X0121173Y0184445D01*
X0110173Y0184445D01*
X0110075Y0184443D01*
X0109977Y0184437D01*
X0109879Y0184428D01*
X0109782Y0184414D01*
X0109685Y0184397D01*
X0109589Y0184376D01*
X0109494Y0184351D01*
X0109400Y0184323D01*
X0109308Y0184290D01*
X0109216Y0184255D01*
X0109126Y0184215D01*
X0109038Y0184173D01*
X0108951Y0184126D01*
X0108867Y0184077D01*
X0108784Y0184024D01*
X0108704Y0183968D01*
X0108625Y0183908D01*
X0108549Y0183846D01*
X0108476Y0183781D01*
X0108405Y0183713D01*
X0108337Y0183642D01*
X0108272Y0183569D01*
X0108210Y0183493D01*
X0108150Y0183414D01*
X0108094Y0183334D01*
X0108041Y0183251D01*
X0107992Y0183167D01*
X0107945Y0183080D01*
X0107903Y0182992D01*
X0107863Y0182902D01*
X0107828Y0182810D01*
X0107795Y0182718D01*
X0107767Y0182624D01*
X0107742Y0182529D01*
X0107721Y0182433D01*
X0107704Y0182336D01*
X0107690Y0182239D01*
X0107681Y0182141D01*
X0107675Y0182043D01*
X0107673Y0181945D01*
X0115673Y0175945D02*
X0115673Y0158945D01*
X0117173Y0162445D02*
X0114173Y0162445D01*
X0114173Y0172445D01*
X0117173Y0172445D01*
X0117173Y0162445D01*
X0085358Y0134768D02*
X0082996Y0134768D01*
X0082996Y0130043D02*
X0085358Y0130043D01*
X0073606Y0126224D02*
X0073606Y0101185D01*
X0055378Y0101185D01*
X0055378Y0122224D01*
X0073606Y0122224D01*
X0073606Y0126224D02*
X0055378Y0126224D01*
X0055378Y0122224D01*
X0040319Y0124256D02*
X0005890Y0124256D01*
X0005890Y0099217D01*
X0040319Y0099217D01*
X0040319Y0101248D01*
X0006283Y0101248D01*
X0017642Y0080634D02*
X0020004Y0080634D01*
X0020004Y0075909D02*
X0017642Y0075909D01*
X0040319Y0101248D02*
X0040319Y0124256D01*
X0057051Y0147524D02*
X0057051Y0149886D01*
X0061776Y0149886D02*
X0061776Y0147524D01*
X0025807Y0183854D02*
X0024807Y0182854D01*
X0024807Y0171354D01*
X0015713Y0147051D02*
X0015713Y0144689D01*
X0010988Y0144689D02*
X0010988Y0147051D01*
X0080240Y0075122D02*
X0082602Y0075122D01*
X0082602Y0070398D02*
X0080240Y0070398D01*
X0096776Y0070398D02*
X0099138Y0070398D01*
X0099138Y0075122D02*
X0096776Y0075122D01*
X0060949Y0046776D02*
X0060949Y0044413D01*
X0056224Y0044413D02*
X0056224Y0046776D01*
X0092839Y0021579D02*
X0095201Y0021579D01*
X0095201Y0016854D02*
X0092839Y0016854D01*
X0145260Y0073272D02*
X0150260Y0073272D01*
X0152760Y0075772D01*
X0155260Y0073272D01*
X0160260Y0073272D01*
X0162760Y0075772D01*
X0165260Y0073272D01*
X0170260Y0073272D01*
X0172760Y0075772D01*
X0175260Y0073272D01*
X0180260Y0073272D01*
X0182760Y0075772D01*
X0185260Y0073272D01*
X0190260Y0073272D01*
X0192760Y0075772D01*
X0195260Y0073272D01*
X0200260Y0073272D01*
X0202760Y0075772D01*
X0202760Y0080772D01*
X0200260Y0083272D01*
X0195260Y0083272D01*
X0192760Y0080772D01*
X0190260Y0083272D01*
X0185260Y0083272D01*
X0182760Y0080772D01*
X0180260Y0083272D01*
X0175260Y0083272D01*
X0172760Y0080772D01*
X0170260Y0083272D01*
X0165260Y0083272D01*
X0162760Y0080772D01*
X0160260Y0083272D01*
X0155260Y0083272D01*
X0152760Y0080772D01*
X0150260Y0083272D01*
X0145260Y0083272D01*
X0142760Y0080772D01*
X0142760Y0075772D01*
X0145260Y0073272D01*
X0110831Y0208661D02*
X0100831Y0208661D01*
X0100831Y0211661D01*
X0110831Y0211661D01*
X0110831Y0208661D01*
X0114331Y0210161D02*
X0097331Y0210161D01*
X0088831Y0210161D02*
X0088836Y0210578D01*
X0088851Y0210995D01*
X0088877Y0211412D01*
X0088913Y0211827D01*
X0088959Y0212242D01*
X0089015Y0212655D01*
X0089081Y0213067D01*
X0089158Y0213478D01*
X0089244Y0213886D01*
X0089340Y0214292D01*
X0089447Y0214695D01*
X0089563Y0215096D01*
X0089689Y0215494D01*
X0089825Y0215888D01*
X0089970Y0216279D01*
X0090125Y0216667D01*
X0090289Y0217050D01*
X0090463Y0217429D01*
X0090646Y0217804D01*
X0090838Y0218175D01*
X0091040Y0218540D01*
X0091250Y0218901D01*
X0091468Y0219256D01*
X0091696Y0219606D01*
X0091932Y0219950D01*
X0092176Y0220288D01*
X0092429Y0220620D01*
X0092690Y0220946D01*
X0092958Y0221265D01*
X0093235Y0221578D01*
X0093519Y0221883D01*
X0093810Y0222182D01*
X0094109Y0222473D01*
X0094414Y0222757D01*
X0094727Y0223034D01*
X0095046Y0223302D01*
X0095372Y0223563D01*
X0095704Y0223816D01*
X0096042Y0224060D01*
X0096386Y0224296D01*
X0096736Y0224524D01*
X0097091Y0224742D01*
X0097452Y0224952D01*
X0097817Y0225154D01*
X0098188Y0225346D01*
X0098563Y0225529D01*
X0098942Y0225703D01*
X0099325Y0225867D01*
X0099713Y0226022D01*
X0100104Y0226167D01*
X0100498Y0226303D01*
X0100896Y0226429D01*
X0101297Y0226545D01*
X0101700Y0226652D01*
X0102106Y0226748D01*
X0102514Y0226834D01*
X0102925Y0226911D01*
X0103337Y0226977D01*
X0103750Y0227033D01*
X0104165Y0227079D01*
X0104580Y0227115D01*
X0104997Y0227141D01*
X0105414Y0227156D01*
X0105831Y0227161D01*
X0106248Y0227156D01*
X0106665Y0227141D01*
X0107082Y0227115D01*
X0107497Y0227079D01*
X0107912Y0227033D01*
X0108325Y0226977D01*
X0108737Y0226911D01*
X0109148Y0226834D01*
X0109556Y0226748D01*
X0109962Y0226652D01*
X0110365Y0226545D01*
X0110766Y0226429D01*
X0111164Y0226303D01*
X0111558Y0226167D01*
X0111949Y0226022D01*
X0112337Y0225867D01*
X0112720Y0225703D01*
X0113099Y0225529D01*
X0113474Y0225346D01*
X0113845Y0225154D01*
X0114210Y0224952D01*
X0114571Y0224742D01*
X0114926Y0224524D01*
X0115276Y0224296D01*
X0115620Y0224060D01*
X0115958Y0223816D01*
X0116290Y0223563D01*
X0116616Y0223302D01*
X0116935Y0223034D01*
X0117248Y0222757D01*
X0117553Y0222473D01*
X0117852Y0222182D01*
X0118143Y0221883D01*
X0118427Y0221578D01*
X0118704Y0221265D01*
X0118972Y0220946D01*
X0119233Y0220620D01*
X0119486Y0220288D01*
X0119730Y0219950D01*
X0119966Y0219606D01*
X0120194Y0219256D01*
X0120412Y0218901D01*
X0120622Y0218540D01*
X0120824Y0218175D01*
X0121016Y0217804D01*
X0121199Y0217429D01*
X0121373Y0217050D01*
X0121537Y0216667D01*
X0121692Y0216279D01*
X0121837Y0215888D01*
X0121973Y0215494D01*
X0122099Y0215096D01*
X0122215Y0214695D01*
X0122322Y0214292D01*
X0122418Y0213886D01*
X0122504Y0213478D01*
X0122581Y0213067D01*
X0122647Y0212655D01*
X0122703Y0212242D01*
X0122749Y0211827D01*
X0122785Y0211412D01*
X0122811Y0210995D01*
X0122826Y0210578D01*
X0122831Y0210161D01*
X0122826Y0209744D01*
X0122811Y0209327D01*
X0122785Y0208910D01*
X0122749Y0208495D01*
X0122703Y0208080D01*
X0122647Y0207667D01*
X0122581Y0207255D01*
X0122504Y0206844D01*
X0122418Y0206436D01*
X0122322Y0206030D01*
X0122215Y0205627D01*
X0122099Y0205226D01*
X0121973Y0204828D01*
X0121837Y0204434D01*
X0121692Y0204043D01*
X0121537Y0203655D01*
X0121373Y0203272D01*
X0121199Y0202893D01*
X0121016Y0202518D01*
X0120824Y0202147D01*
X0120622Y0201782D01*
X0120412Y0201421D01*
X0120194Y0201066D01*
X0119966Y0200716D01*
X0119730Y0200372D01*
X0119486Y0200034D01*
X0119233Y0199702D01*
X0118972Y0199376D01*
X0118704Y0199057D01*
X0118427Y0198744D01*
X0118143Y0198439D01*
X0117852Y0198140D01*
X0117553Y0197849D01*
X0117248Y0197565D01*
X0116935Y0197288D01*
X0116616Y0197020D01*
X0116290Y0196759D01*
X0115958Y0196506D01*
X0115620Y0196262D01*
X0115276Y0196026D01*
X0114926Y0195798D01*
X0114571Y0195580D01*
X0114210Y0195370D01*
X0113845Y0195168D01*
X0113474Y0194976D01*
X0113099Y0194793D01*
X0112720Y0194619D01*
X0112337Y0194455D01*
X0111949Y0194300D01*
X0111558Y0194155D01*
X0111164Y0194019D01*
X0110766Y0193893D01*
X0110365Y0193777D01*
X0109962Y0193670D01*
X0109556Y0193574D01*
X0109148Y0193488D01*
X0108737Y0193411D01*
X0108325Y0193345D01*
X0107912Y0193289D01*
X0107497Y0193243D01*
X0107082Y0193207D01*
X0106665Y0193181D01*
X0106248Y0193166D01*
X0105831Y0193161D01*
X0105414Y0193166D01*
X0104997Y0193181D01*
X0104580Y0193207D01*
X0104165Y0193243D01*
X0103750Y0193289D01*
X0103337Y0193345D01*
X0102925Y0193411D01*
X0102514Y0193488D01*
X0102106Y0193574D01*
X0101700Y0193670D01*
X0101297Y0193777D01*
X0100896Y0193893D01*
X0100498Y0194019D01*
X0100104Y0194155D01*
X0099713Y0194300D01*
X0099325Y0194455D01*
X0098942Y0194619D01*
X0098563Y0194793D01*
X0098188Y0194976D01*
X0097817Y0195168D01*
X0097452Y0195370D01*
X0097091Y0195580D01*
X0096736Y0195798D01*
X0096386Y0196026D01*
X0096042Y0196262D01*
X0095704Y0196506D01*
X0095372Y0196759D01*
X0095046Y0197020D01*
X0094727Y0197288D01*
X0094414Y0197565D01*
X0094109Y0197849D01*
X0093810Y0198140D01*
X0093519Y0198439D01*
X0093235Y0198744D01*
X0092958Y0199057D01*
X0092690Y0199376D01*
X0092429Y0199702D01*
X0092176Y0200034D01*
X0091932Y0200372D01*
X0091696Y0200716D01*
X0091468Y0201066D01*
X0091250Y0201421D01*
X0091040Y0201782D01*
X0090838Y0202147D01*
X0090646Y0202518D01*
X0090463Y0202893D01*
X0090289Y0203272D01*
X0090125Y0203655D01*
X0089970Y0204043D01*
X0089825Y0204434D01*
X0089689Y0204828D01*
X0089563Y0205226D01*
X0089447Y0205627D01*
X0089340Y0206030D01*
X0089244Y0206436D01*
X0089158Y0206844D01*
X0089081Y0207255D01*
X0089015Y0207667D01*
X0088959Y0208080D01*
X0088913Y0208495D01*
X0088877Y0208910D01*
X0088851Y0209327D01*
X0088836Y0209744D01*
X0088831Y0210161D01*
D12*
X0069070Y0211485D02*
X0069070Y0212987D01*
X0068069Y0212987D02*
X0068069Y0211485D01*
X0067587Y0211485D02*
X0067087Y0211485D01*
X0067337Y0211485D02*
X0067337Y0212987D01*
X0067087Y0212987D02*
X0067587Y0212987D01*
X0068069Y0212987D02*
X0069070Y0211485D01*
X0068569Y0207987D02*
X0068069Y0207486D01*
X0067596Y0207987D02*
X0067096Y0207987D01*
X0067346Y0207987D02*
X0067346Y0206736D01*
X0067096Y0206485D01*
X0066846Y0206485D01*
X0066596Y0206736D01*
X0068069Y0206485D02*
X0069070Y0206485D01*
X0068569Y0206485D02*
X0068569Y0207987D01*
X0064891Y0211485D02*
X0065141Y0211736D01*
X0064891Y0211485D02*
X0064390Y0211485D01*
X0064140Y0211736D01*
X0064140Y0212736D01*
X0064390Y0212987D01*
X0064891Y0212987D01*
X0065141Y0212736D01*
X0063668Y0212486D02*
X0063668Y0211485D01*
X0063668Y0212236D02*
X0062667Y0212236D01*
X0062667Y0212486D02*
X0063167Y0212987D01*
X0063668Y0212486D01*
X0062667Y0212486D02*
X0062667Y0211485D01*
X0063362Y0148702D02*
X0064363Y0147701D01*
X0064113Y0147951D02*
X0064863Y0148702D01*
X0064863Y0147701D02*
X0063362Y0147701D01*
X0063612Y0147229D02*
X0064613Y0146228D01*
X0064863Y0146478D01*
X0064863Y0146979D01*
X0064613Y0147229D01*
X0063612Y0147229D01*
X0063362Y0146979D01*
X0063362Y0146478D01*
X0063612Y0146228D01*
X0064613Y0146228D01*
X0064613Y0145756D02*
X0064863Y0145505D01*
X0064863Y0145005D01*
X0064613Y0144755D01*
X0064113Y0145255D02*
X0064113Y0145505D01*
X0064363Y0145756D01*
X0064613Y0145756D01*
X0064113Y0145505D02*
X0063863Y0145756D01*
X0063612Y0145756D01*
X0063362Y0145505D01*
X0063362Y0145005D01*
X0063612Y0144755D01*
X0056113Y0145755D02*
X0054612Y0145755D01*
X0054612Y0146505D01*
X0054862Y0146756D01*
X0055363Y0146756D01*
X0055613Y0146505D01*
X0055613Y0145755D01*
X0055613Y0146255D02*
X0056113Y0146756D01*
X0055863Y0147228D02*
X0056113Y0147478D01*
X0056113Y0147979D01*
X0055863Y0148229D01*
X0055613Y0148229D01*
X0055363Y0147979D01*
X0055363Y0147728D01*
X0055363Y0147979D02*
X0055113Y0148229D01*
X0054862Y0148229D01*
X0054612Y0147979D01*
X0054612Y0147478D01*
X0054862Y0147228D01*
X0080227Y0128207D02*
X0080477Y0128457D01*
X0080978Y0128457D01*
X0081228Y0128207D01*
X0081228Y0127956D01*
X0080978Y0127706D01*
X0081228Y0127456D01*
X0081228Y0127206D01*
X0080978Y0126956D01*
X0080477Y0126956D01*
X0080227Y0127206D01*
X0080728Y0127706D02*
X0080978Y0127706D01*
X0081700Y0127206D02*
X0082701Y0128207D01*
X0082701Y0127206D01*
X0082451Y0126956D01*
X0081951Y0126956D01*
X0081700Y0127206D01*
X0081700Y0128207D01*
X0081951Y0128457D01*
X0082451Y0128457D01*
X0082701Y0128207D01*
X0083174Y0128457D02*
X0083174Y0126956D01*
X0083174Y0127456D02*
X0084175Y0128457D01*
X0083424Y0127706D02*
X0084175Y0126956D01*
X0083701Y0135706D02*
X0082700Y0135706D01*
X0083701Y0136706D01*
X0083701Y0136957D01*
X0083451Y0137207D01*
X0082951Y0137207D01*
X0082700Y0136957D01*
X0082228Y0136957D02*
X0082228Y0136456D01*
X0081978Y0136206D01*
X0081227Y0136206D01*
X0081227Y0135706D02*
X0081227Y0137207D01*
X0081978Y0137207D01*
X0082228Y0136957D01*
X0081728Y0136206D02*
X0082228Y0135706D01*
X0082775Y0078211D02*
X0082525Y0077961D01*
X0082775Y0078211D02*
X0083275Y0078211D01*
X0083526Y0077961D01*
X0083526Y0077711D01*
X0082525Y0076710D01*
X0083526Y0076710D01*
X0083998Y0076710D02*
X0083998Y0078211D01*
X0084248Y0077460D02*
X0084999Y0076710D01*
X0083998Y0077210D02*
X0084999Y0078211D01*
X0082038Y0076960D02*
X0082038Y0076710D01*
X0081788Y0076710D01*
X0081788Y0076960D01*
X0082038Y0076960D01*
X0081316Y0076960D02*
X0081316Y0077210D01*
X0081066Y0077460D01*
X0080315Y0077460D01*
X0080315Y0076960D01*
X0080565Y0076710D01*
X0081066Y0076710D01*
X0081316Y0076960D01*
X0080815Y0077961D02*
X0081316Y0078211D01*
X0080815Y0077961D02*
X0080315Y0077460D01*
X0081525Y0069461D02*
X0082275Y0069461D01*
X0082526Y0069211D01*
X0082526Y0068710D01*
X0082275Y0068460D01*
X0081525Y0068460D01*
X0082025Y0068460D02*
X0082526Y0067960D01*
X0082998Y0068710D02*
X0083999Y0068710D01*
X0083749Y0067960D02*
X0083749Y0069461D01*
X0082998Y0068710D01*
X0081525Y0067960D02*
X0081525Y0069461D01*
X0094007Y0068060D02*
X0094757Y0068060D01*
X0095008Y0067810D01*
X0095008Y0067560D01*
X0094757Y0067310D01*
X0094257Y0067310D01*
X0094007Y0067560D01*
X0094007Y0068060D01*
X0094507Y0068561D01*
X0095008Y0068811D01*
X0096217Y0068561D02*
X0096467Y0068811D01*
X0096967Y0068811D01*
X0097217Y0068561D01*
X0097217Y0068311D01*
X0096217Y0067310D01*
X0097217Y0067310D01*
X0097690Y0067310D02*
X0097690Y0068811D01*
X0097940Y0068060D02*
X0098691Y0067310D01*
X0097690Y0067810D02*
X0098691Y0068811D01*
X0095730Y0067560D02*
X0095730Y0067310D01*
X0095480Y0067310D01*
X0095480Y0067560D01*
X0095730Y0067560D01*
X0096008Y0076060D02*
X0095507Y0076560D01*
X0095757Y0076560D02*
X0095007Y0076560D01*
X0095007Y0076060D02*
X0095007Y0077561D01*
X0095757Y0077561D01*
X0096008Y0077311D01*
X0096008Y0076810D01*
X0095757Y0076560D01*
X0096480Y0076560D02*
X0096730Y0076810D01*
X0097231Y0076810D01*
X0097481Y0076560D01*
X0097481Y0076310D01*
X0097231Y0076060D01*
X0096730Y0076060D01*
X0096480Y0076310D01*
X0096480Y0076560D01*
X0096730Y0076810D02*
X0096480Y0077061D01*
X0096480Y0077311D01*
X0096730Y0077561D01*
X0097231Y0077561D01*
X0097481Y0077311D01*
X0097481Y0077061D01*
X0097231Y0076810D01*
X0111097Y0064390D02*
X0111097Y0063139D01*
X0111347Y0062889D01*
X0111848Y0062889D01*
X0112098Y0063139D01*
X0112098Y0064390D01*
X0112570Y0063639D02*
X0113571Y0063639D01*
X0113321Y0062889D02*
X0113321Y0064390D01*
X0112570Y0063639D01*
X0107414Y0039075D02*
X0106664Y0039075D01*
X0106664Y0037574D01*
X0106664Y0038074D02*
X0107414Y0038074D01*
X0107665Y0038324D01*
X0107665Y0038825D01*
X0107414Y0039075D01*
X0106191Y0039075D02*
X0105190Y0039075D01*
X0105190Y0037574D01*
X0104718Y0037574D02*
X0104218Y0038074D01*
X0104718Y0037824D02*
X0104468Y0037574D01*
X0103967Y0037574D01*
X0103717Y0037824D01*
X0103717Y0038825D01*
X0103967Y0039075D01*
X0104468Y0039075D01*
X0104718Y0038825D01*
X0104718Y0037824D01*
X0105190Y0038324D02*
X0105691Y0038324D01*
X0103245Y0039075D02*
X0102244Y0039075D01*
X0102744Y0039075D02*
X0102744Y0037574D01*
X0101772Y0037323D02*
X0100771Y0037323D01*
X0100048Y0038074D02*
X0099297Y0038074D01*
X0098825Y0038074D02*
X0098825Y0037824D01*
X0098575Y0037574D01*
X0098074Y0037574D01*
X0097824Y0037824D01*
X0097824Y0038074D01*
X0098074Y0038324D01*
X0098575Y0038324D01*
X0098825Y0038074D01*
X0098575Y0038324D02*
X0098825Y0038574D01*
X0098825Y0038825D01*
X0098575Y0039075D01*
X0098074Y0039075D01*
X0097824Y0038825D01*
X0097824Y0038574D01*
X0098074Y0038324D01*
X0097352Y0038574D02*
X0097352Y0038825D01*
X0097102Y0039075D01*
X0096601Y0039075D01*
X0096351Y0038825D01*
X0095879Y0038825D02*
X0095879Y0038574D01*
X0095628Y0038324D01*
X0095879Y0038074D01*
X0095879Y0037824D01*
X0095628Y0037574D01*
X0095128Y0037574D01*
X0094878Y0037824D01*
X0094405Y0037574D02*
X0094405Y0038574D01*
X0093905Y0039075D01*
X0093404Y0038574D01*
X0093404Y0037574D01*
X0092932Y0037824D02*
X0092932Y0038324D01*
X0092432Y0038324D01*
X0092932Y0037824D02*
X0092682Y0037574D01*
X0092181Y0037574D01*
X0091931Y0037824D01*
X0091931Y0038825D01*
X0092181Y0039075D01*
X0092682Y0039075D01*
X0092932Y0038825D01*
X0093404Y0038324D02*
X0094405Y0038324D01*
X0094878Y0038825D02*
X0095128Y0039075D01*
X0095628Y0039075D01*
X0095879Y0038825D01*
X0095628Y0038324D02*
X0095378Y0038324D01*
X0096351Y0037574D02*
X0097352Y0038574D01*
X0097352Y0037574D02*
X0096351Y0037574D01*
X0099297Y0037574D02*
X0099297Y0039075D01*
X0100048Y0039075D01*
X0100298Y0038825D01*
X0100298Y0038324D01*
X0100048Y0038074D01*
X0091459Y0037574D02*
X0090458Y0037574D01*
X0090458Y0039075D01*
X0091459Y0039075D01*
X0090958Y0038324D02*
X0090458Y0038324D01*
X0089986Y0037574D02*
X0089986Y0039075D01*
X0089485Y0038574D01*
X0088985Y0039075D01*
X0088985Y0037574D01*
X0088012Y0037574D02*
X0088012Y0039075D01*
X0088512Y0039075D02*
X0087511Y0039075D01*
X0087039Y0038574D02*
X0087039Y0037574D01*
X0087039Y0038324D02*
X0086038Y0038324D01*
X0086038Y0038574D02*
X0086539Y0039075D01*
X0087039Y0038574D01*
X0086038Y0038574D02*
X0086038Y0037574D01*
X0093900Y0024668D02*
X0094401Y0024668D01*
X0094651Y0024418D01*
X0094651Y0024167D01*
X0094401Y0023917D01*
X0094651Y0023667D01*
X0094651Y0023417D01*
X0094401Y0023167D01*
X0093900Y0023167D01*
X0093650Y0023417D01*
X0094150Y0023917D02*
X0094401Y0023917D01*
X0095123Y0023417D02*
X0095373Y0023167D01*
X0095874Y0023167D01*
X0096124Y0023417D01*
X0096124Y0023667D01*
X0095874Y0023917D01*
X0095624Y0023917D01*
X0095874Y0023917D02*
X0096124Y0024167D01*
X0096124Y0024418D01*
X0095874Y0024668D01*
X0095373Y0024668D01*
X0095123Y0024418D01*
X0093900Y0024668D02*
X0093650Y0024418D01*
X0096596Y0024418D02*
X0096847Y0024668D01*
X0097347Y0024668D01*
X0097597Y0024418D01*
X0096596Y0023417D01*
X0096847Y0023167D01*
X0097347Y0023167D01*
X0097597Y0023417D01*
X0097597Y0024418D01*
X0096596Y0024418D02*
X0096596Y0023417D01*
X0096597Y0015918D02*
X0095596Y0015918D01*
X0095596Y0015167D01*
X0096097Y0015417D01*
X0096347Y0015417D01*
X0096597Y0015167D01*
X0096597Y0014667D01*
X0096347Y0014417D01*
X0095847Y0014417D01*
X0095596Y0014667D01*
X0095124Y0014417D02*
X0094624Y0014917D01*
X0094874Y0014917D02*
X0094123Y0014917D01*
X0094123Y0014417D02*
X0094123Y0015918D01*
X0094874Y0015918D01*
X0095124Y0015668D01*
X0095124Y0015167D01*
X0094874Y0014917D01*
X0063387Y0045948D02*
X0063387Y0046449D01*
X0063136Y0046699D01*
X0063387Y0047171D02*
X0063387Y0048172D01*
X0063387Y0047672D02*
X0061885Y0047672D01*
X0062386Y0047171D01*
X0062136Y0046699D02*
X0061885Y0046449D01*
X0061885Y0045948D01*
X0062136Y0045698D01*
X0063136Y0045698D01*
X0063387Y0045948D01*
X0054637Y0045725D02*
X0053135Y0045725D01*
X0053636Y0045225D01*
X0054386Y0044738D02*
X0054637Y0044738D01*
X0054637Y0044488D01*
X0054386Y0044488D01*
X0054386Y0044738D01*
X0054637Y0045225D02*
X0054637Y0046226D01*
X0054386Y0046698D02*
X0054637Y0046948D01*
X0054637Y0047699D01*
X0053636Y0047699D01*
X0053886Y0048171D02*
X0053886Y0048672D01*
X0053135Y0048171D02*
X0053135Y0049172D01*
X0053135Y0048171D02*
X0054637Y0048171D01*
X0054386Y0046698D02*
X0053636Y0046698D01*
X0053386Y0044016D02*
X0054386Y0043015D01*
X0054637Y0043265D01*
X0054637Y0043765D01*
X0054386Y0044016D01*
X0053386Y0044016D01*
X0053135Y0043765D01*
X0053135Y0043265D01*
X0053386Y0043015D01*
X0054386Y0043015D01*
X0026633Y0056728D02*
X0026633Y0056978D01*
X0026382Y0057228D01*
X0025131Y0057228D01*
X0025131Y0056978D02*
X0025131Y0057478D01*
X0025382Y0057951D02*
X0025131Y0058201D01*
X0025131Y0058701D01*
X0025382Y0058952D01*
X0025632Y0058952D01*
X0026633Y0057951D01*
X0026633Y0058952D01*
X0026633Y0056728D02*
X0026382Y0056477D01*
X0021633Y0056728D02*
X0021633Y0057228D01*
X0021382Y0057478D01*
X0021633Y0057951D02*
X0020131Y0057951D01*
X0020382Y0057478D02*
X0020131Y0057228D01*
X0020131Y0056728D01*
X0020382Y0056477D01*
X0021382Y0056477D01*
X0021633Y0056728D01*
X0021633Y0055505D02*
X0020131Y0055505D01*
X0020131Y0056005D02*
X0020131Y0055004D01*
X0020131Y0054522D02*
X0020131Y0054022D01*
X0020131Y0054272D02*
X0021633Y0054272D01*
X0021633Y0054022D02*
X0021633Y0054522D01*
X0021633Y0053550D02*
X0020131Y0053550D01*
X0020131Y0052549D02*
X0021633Y0052549D01*
X0021132Y0053049D01*
X0021633Y0053550D01*
X0021382Y0052076D02*
X0021132Y0052076D01*
X0020882Y0051826D01*
X0020882Y0051326D01*
X0020632Y0051076D01*
X0020382Y0051076D01*
X0020131Y0051326D01*
X0020131Y0051826D01*
X0020382Y0052076D01*
X0021382Y0052076D02*
X0021633Y0051826D01*
X0021633Y0051326D01*
X0021382Y0051076D01*
X0020882Y0057951D02*
X0020882Y0058952D01*
X0020131Y0058952D02*
X0021633Y0058952D01*
X0020400Y0073472D02*
X0020400Y0073722D01*
X0021400Y0074723D01*
X0021400Y0074973D01*
X0020400Y0074973D01*
X0019927Y0074723D02*
X0019927Y0074222D01*
X0019677Y0073972D01*
X0018926Y0073972D01*
X0018926Y0073472D02*
X0018926Y0074973D01*
X0019677Y0074973D01*
X0019927Y0074723D01*
X0019427Y0073972D02*
X0019927Y0073472D01*
X0019926Y0082222D02*
X0020927Y0083223D01*
X0020927Y0083473D01*
X0020677Y0083723D01*
X0020177Y0083723D01*
X0019926Y0083473D01*
X0019440Y0082472D02*
X0019440Y0082222D01*
X0019190Y0082222D01*
X0019190Y0082472D01*
X0019440Y0082472D01*
X0019926Y0082222D02*
X0020927Y0082222D01*
X0021400Y0082222D02*
X0021400Y0083723D01*
X0021650Y0082972D02*
X0022400Y0082222D01*
X0021400Y0082722D02*
X0022400Y0083723D01*
X0018717Y0083723D02*
X0018217Y0083473D01*
X0017716Y0082972D01*
X0018467Y0082972D01*
X0018717Y0082722D01*
X0018717Y0082472D01*
X0018467Y0082222D01*
X0017967Y0082222D01*
X0017716Y0082472D01*
X0017716Y0082972D01*
X0017800Y0141920D02*
X0017299Y0142420D01*
X0018800Y0142420D01*
X0018800Y0141920D02*
X0018800Y0142921D01*
X0018800Y0143393D02*
X0017299Y0143393D01*
X0018050Y0143644D02*
X0018800Y0144394D01*
X0018300Y0143393D02*
X0017299Y0144394D01*
X0010050Y0144644D02*
X0010050Y0145144D01*
X0009800Y0145394D01*
X0009550Y0145394D01*
X0009300Y0145144D01*
X0009300Y0144393D01*
X0009800Y0144393D01*
X0010050Y0144644D01*
X0010050Y0143921D02*
X0009550Y0143420D01*
X0009550Y0143671D02*
X0009550Y0142920D01*
X0010050Y0142920D02*
X0008549Y0142920D01*
X0008549Y0143671D01*
X0008799Y0143921D01*
X0009300Y0143921D01*
X0009550Y0143671D01*
X0009300Y0144393D02*
X0008799Y0144894D01*
X0008549Y0145394D01*
D13*
X0002091Y0066579D02*
X0002091Y0022484D01*
X0006028Y0022484D01*
X0006028Y0066579D01*
X0031618Y0066579D01*
X0031618Y0022484D01*
X0006028Y0022484D01*
X0026894Y0022484D02*
X0026894Y0020122D01*
X0030831Y0020122D01*
X0030831Y0022484D01*
X0009768Y0066579D02*
X0009768Y0068941D01*
X0005831Y0068941D01*
X0005831Y0066579D01*
X0006028Y0066579D02*
X0002091Y0066579D01*
X0080988Y0061276D02*
X0080990Y0061325D01*
X0080996Y0061373D01*
X0081006Y0061421D01*
X0081020Y0061468D01*
X0081037Y0061514D01*
X0081058Y0061558D01*
X0081083Y0061600D01*
X0081111Y0061640D01*
X0081143Y0061678D01*
X0081177Y0061713D01*
X0081214Y0061745D01*
X0081253Y0061774D01*
X0081295Y0061800D01*
X0081339Y0061822D01*
X0081384Y0061840D01*
X0081431Y0061855D01*
X0081478Y0061866D01*
X0081527Y0061873D01*
X0081576Y0061876D01*
X0081625Y0061875D01*
X0081673Y0061870D01*
X0081722Y0061861D01*
X0081769Y0061848D01*
X0081815Y0061831D01*
X0081859Y0061811D01*
X0081902Y0061787D01*
X0081943Y0061760D01*
X0081981Y0061729D01*
X0082017Y0061696D01*
X0082049Y0061660D01*
X0082079Y0061621D01*
X0082106Y0061580D01*
X0082129Y0061536D01*
X0082148Y0061491D01*
X0082164Y0061445D01*
X0082176Y0061398D01*
X0082184Y0061349D01*
X0082188Y0061300D01*
X0082188Y0061252D01*
X0082184Y0061203D01*
X0082176Y0061154D01*
X0082164Y0061107D01*
X0082148Y0061061D01*
X0082129Y0061016D01*
X0082106Y0060972D01*
X0082079Y0060931D01*
X0082049Y0060892D01*
X0082017Y0060856D01*
X0081981Y0060823D01*
X0081943Y0060792D01*
X0081902Y0060765D01*
X0081859Y0060741D01*
X0081815Y0060721D01*
X0081769Y0060704D01*
X0081722Y0060691D01*
X0081673Y0060682D01*
X0081625Y0060677D01*
X0081576Y0060676D01*
X0081527Y0060679D01*
X0081478Y0060686D01*
X0081431Y0060697D01*
X0081384Y0060712D01*
X0081339Y0060730D01*
X0081295Y0060752D01*
X0081253Y0060778D01*
X0081214Y0060807D01*
X0081177Y0060839D01*
X0081143Y0060874D01*
X0081111Y0060912D01*
X0081083Y0060952D01*
X0081058Y0060994D01*
X0081037Y0061038D01*
X0081020Y0061084D01*
X0081006Y0061131D01*
X0080996Y0061179D01*
X0080990Y0061227D01*
X0080988Y0061276D01*
X0082189Y0059177D02*
X0083587Y0060575D01*
X0109787Y0060575D01*
X0109787Y0032976D01*
X0082189Y0032976D01*
X0082189Y0059177D01*
X0153469Y0138390D02*
X0160549Y0138390D01*
X0157009Y0138390D02*
X0157009Y0143110D01*
X0153469Y0143110D02*
X0160549Y0143110D01*
X0160549Y0145640D02*
X0160549Y0148000D01*
X0160549Y0146820D02*
X0153469Y0146820D01*
X0153469Y0145640D02*
X0153469Y0148000D01*
X0157009Y0150473D02*
X0157009Y0155193D01*
X0153469Y0157724D02*
X0160549Y0157724D01*
X0160549Y0162444D01*
X0160549Y0164974D02*
X0160549Y0167334D01*
X0160549Y0166154D02*
X0153469Y0166154D01*
X0153469Y0164974D02*
X0153469Y0167334D01*
X0153469Y0169807D02*
X0160549Y0174528D01*
X0153469Y0174528D01*
X0153469Y0177058D02*
X0160549Y0177058D01*
X0158189Y0177058D02*
X0153469Y0181778D01*
X0157009Y0178238D02*
X0160549Y0181778D01*
X0165280Y0179389D02*
X0165280Y0177029D01*
X0166460Y0175849D01*
X0171180Y0175849D01*
X0166460Y0180569D01*
X0171180Y0180569D01*
X0172360Y0179389D01*
X0172360Y0177029D01*
X0171180Y0175849D01*
X0172360Y0173319D02*
X0165280Y0173319D01*
X0167640Y0170959D01*
X0165280Y0168599D01*
X0172360Y0168599D01*
X0168820Y0166069D02*
X0170000Y0164889D01*
X0170000Y0161349D01*
X0172360Y0161349D02*
X0165280Y0161349D01*
X0165280Y0164889D01*
X0166460Y0166069D01*
X0168820Y0166069D01*
X0168820Y0158819D02*
X0168820Y0154098D01*
X0172360Y0151568D02*
X0168820Y0148028D01*
X0170000Y0146848D02*
X0165280Y0151568D01*
X0165280Y0146848D02*
X0172360Y0146848D01*
X0172360Y0144318D02*
X0172360Y0139598D01*
X0165280Y0139598D01*
X0165280Y0137068D02*
X0172360Y0137068D01*
X0168820Y0137068D02*
X0168820Y0132348D01*
X0172360Y0132348D02*
X0165280Y0132348D01*
X0177091Y0130450D02*
X0177091Y0128090D01*
X0178271Y0126910D01*
X0182991Y0126910D01*
X0178271Y0131630D01*
X0182991Y0131630D01*
X0184171Y0130450D01*
X0184171Y0128090D01*
X0182991Y0126910D01*
X0182991Y0124380D02*
X0181811Y0124380D01*
X0180631Y0123200D01*
X0180631Y0119660D01*
X0182991Y0119660D01*
X0184171Y0120840D01*
X0184171Y0123200D01*
X0182991Y0124380D01*
X0178271Y0122020D02*
X0180631Y0119660D01*
X0178271Y0122020D02*
X0177091Y0124380D01*
X0177091Y0130450D02*
X0178271Y0131630D01*
X0178271Y0134160D02*
X0177091Y0135340D01*
X0177091Y0137700D01*
X0178271Y0138880D01*
X0182991Y0134160D01*
X0184171Y0135340D01*
X0184171Y0137700D01*
X0182991Y0138880D01*
X0178271Y0138880D01*
X0179451Y0141410D02*
X0179451Y0142591D01*
X0180631Y0143771D01*
X0179451Y0144951D01*
X0180631Y0146131D01*
X0184171Y0146131D01*
X0184171Y0143771D02*
X0180631Y0143771D01*
X0179451Y0141410D02*
X0184171Y0141410D01*
X0184171Y0148661D02*
X0179451Y0148661D01*
X0177091Y0151021D01*
X0179451Y0153381D01*
X0184171Y0153381D01*
X0180631Y0153381D02*
X0180631Y0148661D01*
X0182991Y0134160D02*
X0178271Y0134160D01*
X0178271Y0163161D02*
X0177091Y0164341D01*
X0177091Y0166701D01*
X0178271Y0167881D01*
X0180631Y0167881D01*
X0181811Y0166701D01*
X0179451Y0166701D01*
X0179451Y0164341D01*
X0181811Y0164341D01*
X0181811Y0166701D01*
X0182991Y0167881D02*
X0184171Y0166701D01*
X0184171Y0164341D01*
X0182991Y0163161D01*
X0178271Y0163161D01*
X0178271Y0177662D02*
X0177091Y0178842D01*
X0177091Y0181202D01*
X0178271Y0182382D01*
X0179451Y0182382D01*
X0180631Y0181202D01*
X0181811Y0182382D01*
X0182991Y0182382D01*
X0184171Y0181202D01*
X0184171Y0178842D01*
X0182991Y0177662D01*
X0180631Y0180022D02*
X0180631Y0181202D01*
X0182991Y0184912D02*
X0182991Y0186092D01*
X0184171Y0186092D01*
X0184171Y0184912D01*
X0182991Y0184912D01*
X0182991Y0188537D02*
X0184171Y0189717D01*
X0184171Y0192077D01*
X0182991Y0193257D01*
X0181811Y0193257D01*
X0180631Y0192077D01*
X0180631Y0190897D01*
X0180631Y0192077D02*
X0179451Y0193257D01*
X0178271Y0193257D01*
X0177091Y0192077D01*
X0177091Y0189717D01*
X0178271Y0188537D01*
X0172360Y0186640D02*
X0172360Y0184280D01*
X0171180Y0183100D01*
X0168820Y0185460D02*
X0168820Y0186640D01*
X0170000Y0187820D01*
X0171180Y0187820D01*
X0172360Y0186640D01*
X0168820Y0186640D02*
X0167640Y0187820D01*
X0166460Y0187820D01*
X0165280Y0186640D01*
X0165280Y0184280D01*
X0166460Y0183100D01*
X0166460Y0180569D02*
X0165280Y0179389D01*
X0160549Y0169807D02*
X0153469Y0169807D01*
X0177091Y0195788D02*
X0181811Y0195788D01*
X0184171Y0198148D01*
X0181811Y0200508D01*
X0177091Y0200508D01*
X0079059Y0223350D02*
X0079059Y0227287D01*
X0076697Y0227287D01*
X0076697Y0227091D02*
X0012917Y0227091D01*
X0012917Y0231028D01*
X0076697Y0231028D01*
X0076697Y0227091D01*
X0076697Y0201500D01*
X0012917Y0201500D01*
X0012917Y0227091D01*
X0012917Y0206224D02*
X0010555Y0206224D01*
X0010555Y0202287D01*
X0012917Y0202287D01*
X0076697Y0223350D02*
X0079059Y0223350D01*
D14*
X0053537Y0203469D02*
X0053539Y0203536D01*
X0053545Y0203602D01*
X0053555Y0203668D01*
X0053569Y0203733D01*
X0053586Y0203797D01*
X0053608Y0203860D01*
X0053633Y0203922D01*
X0053662Y0203982D01*
X0053695Y0204040D01*
X0053730Y0204096D01*
X0053770Y0204150D01*
X0053812Y0204201D01*
X0053857Y0204250D01*
X0053905Y0204296D01*
X0053956Y0204339D01*
X0054009Y0204379D01*
X0054065Y0204416D01*
X0054123Y0204449D01*
X0054182Y0204479D01*
X0054243Y0204505D01*
X0054306Y0204528D01*
X0054370Y0204546D01*
X0054435Y0204561D01*
X0054501Y0204572D01*
X0054567Y0204579D01*
X0054633Y0204582D01*
X0054700Y0204581D01*
X0054766Y0204576D01*
X0054832Y0204567D01*
X0054898Y0204554D01*
X0054962Y0204537D01*
X0055025Y0204517D01*
X0055087Y0204492D01*
X0055148Y0204464D01*
X0055207Y0204433D01*
X0055263Y0204398D01*
X0055318Y0204360D01*
X0055370Y0204318D01*
X0055419Y0204273D01*
X0055466Y0204226D01*
X0055510Y0204176D01*
X0055550Y0204123D01*
X0055588Y0204068D01*
X0055622Y0204011D01*
X0055653Y0203952D01*
X0055680Y0203891D01*
X0055703Y0203829D01*
X0055723Y0203765D01*
X0055739Y0203700D01*
X0055751Y0203635D01*
X0055759Y0203569D01*
X0055763Y0203502D01*
X0055763Y0203436D01*
X0055759Y0203369D01*
X0055751Y0203303D01*
X0055739Y0203238D01*
X0055723Y0203173D01*
X0055703Y0203109D01*
X0055680Y0203047D01*
X0055653Y0202986D01*
X0055622Y0202927D01*
X0055588Y0202870D01*
X0055550Y0202815D01*
X0055510Y0202762D01*
X0055466Y0202712D01*
X0055419Y0202665D01*
X0055370Y0202620D01*
X0055318Y0202578D01*
X0055263Y0202540D01*
X0055206Y0202505D01*
X0055148Y0202474D01*
X0055087Y0202446D01*
X0055025Y0202421D01*
X0054962Y0202401D01*
X0054898Y0202384D01*
X0054832Y0202371D01*
X0054766Y0202362D01*
X0054700Y0202357D01*
X0054633Y0202356D01*
X0054567Y0202359D01*
X0054501Y0202366D01*
X0054435Y0202377D01*
X0054370Y0202392D01*
X0054306Y0202410D01*
X0054243Y0202433D01*
X0054182Y0202459D01*
X0054123Y0202489D01*
X0054065Y0202522D01*
X0054009Y0202559D01*
X0053956Y0202599D01*
X0053905Y0202642D01*
X0053857Y0202688D01*
X0053812Y0202737D01*
X0053770Y0202788D01*
X0053730Y0202842D01*
X0053695Y0202898D01*
X0053662Y0202956D01*
X0053633Y0203016D01*
X0053608Y0203078D01*
X0053586Y0203141D01*
X0053569Y0203205D01*
X0053555Y0203270D01*
X0053545Y0203336D01*
X0053539Y0203402D01*
X0053537Y0203469D01*
X0022117Y0176062D02*
X0019115Y0176062D01*
X0020616Y0176062D02*
X0020616Y0180566D01*
X0019115Y0179064D01*
X0017513Y0180566D02*
X0014511Y0180566D01*
X0016012Y0180566D02*
X0016012Y0176062D01*
X0027008Y0165112D02*
X0026257Y0164361D01*
X0027008Y0165112D02*
X0028509Y0165112D01*
X0029260Y0164361D01*
X0029260Y0163611D01*
X0026257Y0160608D01*
X0029260Y0160608D01*
X0030861Y0160608D02*
X0030861Y0165112D01*
X0033864Y0160608D01*
X0033864Y0165112D01*
X0035465Y0162860D02*
X0037717Y0162860D01*
X0038468Y0162110D01*
X0038468Y0161359D01*
X0037717Y0160608D01*
X0036216Y0160608D01*
X0035465Y0161359D01*
X0035465Y0162860D01*
X0036966Y0164361D01*
X0038468Y0165112D01*
X0040069Y0164361D02*
X0040820Y0165112D01*
X0042321Y0165112D01*
X0043071Y0164361D01*
X0040069Y0161359D01*
X0040820Y0160608D01*
X0042321Y0160608D01*
X0043071Y0161359D01*
X0043071Y0164361D01*
X0044673Y0165112D02*
X0047675Y0165112D01*
X0047675Y0164361D01*
X0044673Y0161359D01*
X0044673Y0160608D01*
X0040069Y0161359D02*
X0040069Y0164361D01*
X0049277Y0164361D02*
X0050027Y0165112D01*
X0051529Y0165112D01*
X0052279Y0164361D01*
X0052279Y0163611D01*
X0051529Y0162860D01*
X0052279Y0162110D01*
X0052279Y0161359D01*
X0051529Y0160608D01*
X0050027Y0160608D01*
X0049277Y0161359D01*
X0050778Y0162860D02*
X0051529Y0162860D01*
X0053881Y0162860D02*
X0056883Y0162860D01*
X0056883Y0163611D02*
X0056883Y0160608D01*
X0058485Y0161359D02*
X0058485Y0164361D01*
X0059235Y0165112D01*
X0060737Y0165112D01*
X0061487Y0164361D01*
X0061487Y0162860D02*
X0059986Y0162860D01*
X0061487Y0162860D02*
X0061487Y0161359D01*
X0060737Y0160608D01*
X0059235Y0160608D01*
X0058485Y0161359D01*
X0056883Y0163611D02*
X0055382Y0165112D01*
X0053881Y0163611D01*
X0053881Y0160608D01*
X0075478Y0162068D02*
X0079982Y0162068D01*
X0079982Y0160567D02*
X0079982Y0163569D01*
X0076980Y0160567D02*
X0075478Y0162068D01*
X0076229Y0158965D02*
X0077730Y0158965D01*
X0078481Y0158215D01*
X0078481Y0155963D01*
X0078481Y0157464D02*
X0079982Y0158965D01*
X0079982Y0155963D02*
X0075478Y0155963D01*
X0075478Y0158215D01*
X0076229Y0158965D01*
X0102297Y0158688D02*
X0103048Y0157937D01*
X0102297Y0158688D02*
X0102297Y0160189D01*
X0103048Y0160940D01*
X0103799Y0160940D01*
X0106801Y0157937D01*
X0106801Y0160940D01*
X0102297Y0156336D02*
X0102297Y0153333D01*
X0106801Y0153333D01*
X0104549Y0153333D02*
X0104549Y0154835D01*
X0079242Y0124853D02*
X0079242Y0121851D01*
X0079242Y0123352D02*
X0074738Y0123352D01*
X0076240Y0121851D01*
X0074738Y0120249D02*
X0077741Y0117247D01*
X0076990Y0117997D02*
X0079242Y0120249D01*
X0079242Y0117247D02*
X0074738Y0117247D01*
X0075489Y0115645D02*
X0074738Y0114895D01*
X0074738Y0113394D01*
X0075489Y0112643D01*
X0078491Y0112643D01*
X0079242Y0113394D01*
X0079242Y0114895D01*
X0078491Y0115645D01*
X0075489Y0115645D01*
X0046211Y0115901D02*
X0041707Y0115901D01*
X0042457Y0114300D02*
X0041707Y0113549D01*
X0041707Y0112048D01*
X0042457Y0111297D01*
X0045460Y0111297D01*
X0046211Y0112048D01*
X0046211Y0113549D01*
X0045460Y0114300D01*
X0042457Y0114300D01*
X0044709Y0115901D02*
X0041707Y0118904D01*
X0042457Y0120505D02*
X0041707Y0121256D01*
X0041707Y0122757D01*
X0042457Y0123508D01*
X0043208Y0123508D01*
X0046211Y0120505D01*
X0046211Y0123508D01*
X0046211Y0118904D02*
X0043959Y0116652D01*
X0028537Y0044531D02*
X0028539Y0044598D01*
X0028545Y0044664D01*
X0028555Y0044730D01*
X0028569Y0044795D01*
X0028586Y0044859D01*
X0028608Y0044922D01*
X0028633Y0044984D01*
X0028662Y0045044D01*
X0028695Y0045102D01*
X0028730Y0045158D01*
X0028770Y0045212D01*
X0028812Y0045263D01*
X0028857Y0045312D01*
X0028905Y0045358D01*
X0028956Y0045401D01*
X0029009Y0045441D01*
X0029065Y0045478D01*
X0029123Y0045511D01*
X0029182Y0045541D01*
X0029243Y0045567D01*
X0029306Y0045590D01*
X0029370Y0045608D01*
X0029435Y0045623D01*
X0029501Y0045634D01*
X0029567Y0045641D01*
X0029633Y0045644D01*
X0029700Y0045643D01*
X0029766Y0045638D01*
X0029832Y0045629D01*
X0029898Y0045616D01*
X0029962Y0045599D01*
X0030025Y0045579D01*
X0030087Y0045554D01*
X0030148Y0045526D01*
X0030207Y0045495D01*
X0030263Y0045460D01*
X0030318Y0045422D01*
X0030370Y0045380D01*
X0030419Y0045335D01*
X0030466Y0045288D01*
X0030510Y0045238D01*
X0030550Y0045185D01*
X0030588Y0045130D01*
X0030622Y0045073D01*
X0030653Y0045014D01*
X0030680Y0044953D01*
X0030703Y0044891D01*
X0030723Y0044827D01*
X0030739Y0044762D01*
X0030751Y0044697D01*
X0030759Y0044631D01*
X0030763Y0044564D01*
X0030763Y0044498D01*
X0030759Y0044431D01*
X0030751Y0044365D01*
X0030739Y0044300D01*
X0030723Y0044235D01*
X0030703Y0044171D01*
X0030680Y0044109D01*
X0030653Y0044048D01*
X0030622Y0043989D01*
X0030588Y0043932D01*
X0030550Y0043877D01*
X0030510Y0043824D01*
X0030466Y0043774D01*
X0030419Y0043727D01*
X0030370Y0043682D01*
X0030318Y0043640D01*
X0030263Y0043602D01*
X0030206Y0043567D01*
X0030148Y0043536D01*
X0030087Y0043508D01*
X0030025Y0043483D01*
X0029962Y0043463D01*
X0029898Y0043446D01*
X0029832Y0043433D01*
X0029766Y0043424D01*
X0029700Y0043419D01*
X0029633Y0043418D01*
X0029567Y0043421D01*
X0029501Y0043428D01*
X0029435Y0043439D01*
X0029370Y0043454D01*
X0029306Y0043472D01*
X0029243Y0043495D01*
X0029182Y0043521D01*
X0029123Y0043551D01*
X0029065Y0043584D01*
X0029009Y0043621D01*
X0028956Y0043661D01*
X0028905Y0043704D01*
X0028857Y0043750D01*
X0028812Y0043799D01*
X0028770Y0043850D01*
X0028730Y0043904D01*
X0028695Y0043960D01*
X0028662Y0044018D01*
X0028633Y0044078D01*
X0028608Y0044140D01*
X0028586Y0044203D01*
X0028569Y0044267D01*
X0028555Y0044332D01*
X0028545Y0044398D01*
X0028539Y0044464D01*
X0028537Y0044531D01*
X0129059Y0094020D02*
X0129059Y0227878D01*
X0208587Y0227878D01*
X0208587Y0094020D01*
X0129059Y0094020D01*
X0143010Y0085772D02*
X0143760Y0085022D01*
X0144511Y0085022D01*
X0145262Y0085772D01*
X0145262Y0089525D01*
X0146012Y0089525D02*
X0144511Y0089525D01*
X0147614Y0088775D02*
X0148364Y0089525D01*
X0149866Y0089525D01*
X0150616Y0088775D01*
X0150616Y0088024D01*
X0149866Y0087274D01*
X0150616Y0086523D01*
X0150616Y0085772D01*
X0149866Y0085022D01*
X0148364Y0085022D01*
X0147614Y0085772D01*
X0149115Y0087274D02*
X0149866Y0087274D01*
X0138390Y0069591D02*
X0179640Y0069591D01*
X0210890Y0069591D01*
X0210890Y0019591D01*
X0179640Y0019591D01*
X0179640Y0069591D01*
X0186317Y0084738D02*
X0187818Y0084738D01*
X0187068Y0084738D02*
X0187068Y0089242D01*
X0187818Y0089242D02*
X0186317Y0089242D01*
X0189386Y0088491D02*
X0189386Y0085489D01*
X0190137Y0084738D01*
X0191638Y0084738D01*
X0192389Y0085489D01*
X0193990Y0085489D02*
X0194741Y0084738D01*
X0196242Y0084738D01*
X0196993Y0085489D01*
X0196993Y0086239D01*
X0196242Y0086990D01*
X0194741Y0086990D01*
X0193990Y0087741D01*
X0193990Y0088491D01*
X0194741Y0089242D01*
X0196242Y0089242D01*
X0196993Y0088491D01*
X0198594Y0089242D02*
X0200846Y0089242D01*
X0201597Y0088491D01*
X0201597Y0086990D01*
X0200846Y0086239D01*
X0198594Y0086239D01*
X0198594Y0084738D02*
X0198594Y0089242D01*
X0192389Y0088491D02*
X0191638Y0089242D01*
X0190137Y0089242D01*
X0189386Y0088491D01*
X0138390Y0069591D02*
X0138390Y0064591D01*
X0138390Y0024591D02*
X0138390Y0019591D01*
X0179640Y0019591D01*
X0127309Y0222537D02*
X0124307Y0222537D01*
X0125808Y0222537D02*
X0125808Y0227041D01*
X0124307Y0225540D01*
X0122705Y0227041D02*
X0119703Y0227041D01*
X0119703Y0222537D01*
X0119703Y0224789D02*
X0121204Y0224789D01*
D15*
X0069463Y0130142D03*
X0059463Y0130142D03*
X0059522Y0097268D03*
X0069522Y0097268D03*
D16*
X0059666Y0103328D02*
X0059299Y0102961D01*
X0059666Y0103328D02*
X0059666Y0104062D01*
X0059299Y0104429D01*
X0058932Y0104429D01*
X0058565Y0104062D01*
X0058565Y0103328D01*
X0058198Y0102961D01*
X0057831Y0102961D01*
X0057464Y0103328D01*
X0057464Y0104062D01*
X0057831Y0104429D01*
X0057464Y0105171D02*
X0057464Y0106639D01*
X0057464Y0107381D02*
X0059666Y0107381D01*
X0058565Y0107381D02*
X0058565Y0108849D01*
X0058565Y0109591D02*
X0058565Y0110692D01*
X0058932Y0111059D01*
X0059299Y0111059D01*
X0059666Y0110692D01*
X0059666Y0109958D01*
X0059299Y0109591D01*
X0058565Y0109591D01*
X0057831Y0110325D01*
X0057464Y0111059D01*
X0057831Y0111801D02*
X0057464Y0112168D01*
X0057464Y0112902D01*
X0057831Y0113269D01*
X0058198Y0113269D01*
X0059666Y0111801D01*
X0059666Y0113269D01*
X0059299Y0114011D02*
X0057831Y0115479D01*
X0059299Y0115479D01*
X0059666Y0115112D01*
X0059666Y0114378D01*
X0059299Y0114011D01*
X0057831Y0114011D01*
X0057464Y0114378D01*
X0057464Y0115112D01*
X0057831Y0115479D01*
X0058565Y0116221D02*
X0058565Y0117322D01*
X0058932Y0117689D01*
X0059299Y0117689D01*
X0059666Y0117322D01*
X0059666Y0116588D01*
X0059299Y0116221D01*
X0058565Y0116221D01*
X0057831Y0116955D01*
X0057464Y0117689D01*
X0057464Y0108849D02*
X0059666Y0108849D01*
X0058565Y0105905D02*
X0058565Y0105171D01*
X0059666Y0105171D02*
X0057464Y0105171D01*
X0030855Y0103431D02*
X0029387Y0103431D01*
X0030121Y0103431D02*
X0030121Y0105633D01*
X0029387Y0104899D01*
X0028645Y0104899D02*
X0028645Y0105266D01*
X0028278Y0105633D01*
X0027544Y0105633D01*
X0027177Y0105266D01*
X0026435Y0105266D02*
X0024967Y0103798D01*
X0025334Y0103431D01*
X0026068Y0103431D01*
X0026435Y0103798D01*
X0026435Y0105266D01*
X0026068Y0105633D01*
X0025334Y0105633D01*
X0024967Y0105266D01*
X0024967Y0103798D01*
X0024225Y0103798D02*
X0023858Y0103431D01*
X0023124Y0103431D01*
X0022757Y0103798D01*
X0022015Y0103798D02*
X0021648Y0103431D01*
X0020914Y0103431D01*
X0020547Y0103798D01*
X0020547Y0105266D01*
X0020914Y0105633D01*
X0021648Y0105633D01*
X0022015Y0105266D01*
X0022757Y0105266D02*
X0023124Y0105633D01*
X0023858Y0105633D01*
X0024225Y0105266D01*
X0024225Y0104899D01*
X0023858Y0104532D01*
X0024225Y0104165D01*
X0024225Y0103798D01*
X0023858Y0104532D02*
X0023491Y0104532D01*
X0019805Y0105266D02*
X0019438Y0105633D01*
X0018704Y0105633D01*
X0018337Y0105266D01*
X0018337Y0103798D01*
X0018704Y0103431D01*
X0019438Y0103431D01*
X0019805Y0103798D01*
X0019805Y0105266D01*
X0017595Y0105633D02*
X0017595Y0103431D01*
X0016128Y0103431D02*
X0016128Y0105633D01*
X0016862Y0104899D01*
X0017595Y0105633D01*
X0027177Y0103431D02*
X0028645Y0104899D01*
X0028645Y0103431D02*
X0027177Y0103431D01*
X0086201Y0163181D02*
X0086201Y0175681D01*
X0093201Y0172181D02*
X0093201Y0167681D01*
X0094201Y0172181D02*
X0094201Y0159681D01*
X0087201Y0163181D02*
X0087201Y0167681D01*
X0095931Y0198293D02*
X0097399Y0199761D01*
X0097399Y0200128D01*
X0097032Y0200495D01*
X0096298Y0200495D01*
X0095931Y0200128D01*
X0095931Y0198293D02*
X0097399Y0198293D01*
X0098141Y0198660D02*
X0098508Y0198293D01*
X0099242Y0198293D01*
X0099609Y0198660D01*
X0099609Y0199394D01*
X0099242Y0199761D01*
X0098875Y0199761D01*
X0098141Y0199394D01*
X0098141Y0200495D01*
X0099609Y0200495D01*
X0100350Y0200128D02*
X0100717Y0200495D01*
X0101451Y0200495D01*
X0101818Y0200128D01*
X0100350Y0198660D01*
X0100717Y0198293D01*
X0101451Y0198293D01*
X0101818Y0198660D01*
X0101818Y0200128D01*
X0102560Y0200495D02*
X0102560Y0199027D01*
X0103294Y0198293D01*
X0104028Y0199027D01*
X0104028Y0200495D01*
X0106980Y0200128D02*
X0106980Y0198660D01*
X0108448Y0200128D01*
X0108448Y0198660D01*
X0108081Y0198293D01*
X0107347Y0198293D01*
X0106980Y0198660D01*
X0106980Y0200128D02*
X0107347Y0200495D01*
X0108081Y0200495D01*
X0108448Y0200128D01*
X0109190Y0198660D02*
X0109557Y0198660D01*
X0109557Y0198293D01*
X0109190Y0198293D01*
X0109190Y0198660D01*
X0110295Y0198293D02*
X0111763Y0199761D01*
X0111763Y0200128D01*
X0111396Y0200495D01*
X0110662Y0200495D01*
X0110295Y0200128D01*
X0110295Y0198293D02*
X0111763Y0198293D01*
X0112505Y0198293D02*
X0112505Y0199761D01*
X0113239Y0200495D01*
X0113973Y0199761D01*
X0113973Y0198293D01*
X0113973Y0199394D02*
X0112505Y0199394D01*
X0116925Y0199761D02*
X0117292Y0199394D01*
X0118025Y0199394D01*
X0118392Y0199027D01*
X0118392Y0198660D01*
X0118025Y0198293D01*
X0117292Y0198293D01*
X0116925Y0198660D01*
X0116925Y0199761D02*
X0116925Y0200128D01*
X0117292Y0200495D01*
X0118025Y0200495D01*
X0118392Y0200128D01*
X0119134Y0200495D02*
X0120235Y0200495D01*
X0120602Y0200128D01*
X0120602Y0199761D01*
X0120235Y0199394D01*
X0119134Y0199394D01*
X0119134Y0198293D02*
X0119134Y0200495D01*
X0120235Y0199394D02*
X0120602Y0199027D01*
X0120602Y0198660D01*
X0120235Y0198293D01*
X0119134Y0198293D01*
X0100350Y0198660D02*
X0100350Y0200128D01*
D17*
X0009374Y0103862D03*
D18*
X0013183Y0095693D03*
X0023183Y0095693D03*
X0033183Y0095693D03*
X0033124Y0127780D03*
X0023124Y0127780D03*
X0013124Y0127780D03*
D19*
X0063007Y0181454D03*
D20*
X0044807Y0168104D03*
D21*
X0027557Y0170604D03*
X0062057Y0170604D03*
D22*
X0049807Y0170604D03*
X0039807Y0170604D03*
D23*
X0034807Y0170604D03*
X0044807Y0170604D03*
X0054807Y0170604D03*
D24*
X0133823Y0115949D02*
X0143823Y0115949D01*
X0138823Y0110949D02*
X0138823Y0120949D01*
X0198823Y0120949D02*
X0198823Y0110949D01*
D25*
X0177940Y0057587D02*
X0177940Y0054518D01*
X0177940Y0056053D02*
X0173336Y0056053D01*
X0174870Y0054518D01*
X0174103Y0052983D02*
X0177172Y0049914D01*
X0177940Y0050681D01*
X0177940Y0052216D01*
X0177172Y0052983D01*
X0174103Y0052983D01*
X0173336Y0052216D01*
X0173336Y0050681D01*
X0174103Y0049914D01*
X0177172Y0049914D01*
X0177940Y0048379D02*
X0177940Y0045310D01*
X0173336Y0045310D01*
X0173336Y0043008D02*
X0175638Y0040706D01*
X0175638Y0043776D01*
X0177940Y0043008D02*
X0173336Y0043008D01*
X0174103Y0039172D02*
X0173336Y0038404D01*
X0173336Y0036870D01*
X0174103Y0036102D01*
X0173336Y0034568D02*
X0173336Y0031498D01*
X0177940Y0031498D01*
X0177940Y0029964D02*
X0176405Y0028429D01*
X0176405Y0029196D02*
X0176405Y0026894D01*
X0177940Y0026894D02*
X0173336Y0026894D01*
X0173336Y0029196D01*
X0174103Y0029964D01*
X0175638Y0029964D01*
X0176405Y0029196D01*
X0175638Y0031498D02*
X0175638Y0033033D01*
X0177940Y0036102D02*
X0174870Y0039172D01*
X0174103Y0039172D01*
X0177940Y0039172D02*
X0177940Y0036102D01*
X0177940Y0025360D02*
X0173336Y0025360D01*
X0173336Y0022291D02*
X0177940Y0025360D01*
X0177940Y0022291D02*
X0173336Y0022291D01*
X0166440Y0023058D02*
X0166440Y0024593D01*
X0165672Y0025360D01*
X0161836Y0025360D01*
X0162603Y0026894D02*
X0161836Y0027662D01*
X0161836Y0029196D01*
X0162603Y0029964D01*
X0163370Y0029964D01*
X0164138Y0029196D01*
X0164905Y0029964D01*
X0165672Y0029964D01*
X0166440Y0029196D01*
X0166440Y0027662D01*
X0165672Y0026894D01*
X0164138Y0028429D02*
X0164138Y0029196D01*
X0166440Y0023058D02*
X0165672Y0022291D01*
X0161836Y0022291D01*
X0126773Y0187413D02*
X0122936Y0187413D01*
X0122936Y0190483D02*
X0126773Y0190483D01*
X0127540Y0189715D01*
X0127540Y0188181D01*
X0126773Y0187413D01*
X0127540Y0192017D02*
X0127540Y0195087D01*
X0127540Y0193552D02*
X0122936Y0193552D01*
X0124471Y0192017D01*
D26*
X0182140Y0067091D02*
X0182140Y0037091D01*
X0192140Y0037091D02*
X0208390Y0037091D01*
X0208390Y0022091D01*
X0192140Y0037091D02*
X0192140Y0042091D01*
X0208390Y0042091D01*
X0208390Y0047091D01*
X0192140Y0047091D01*
X0192140Y0052091D01*
X0208390Y0052091D01*
X0208390Y0057091D01*
X0192140Y0057091D01*
X0192140Y0062091D01*
X0208390Y0062091D01*
X0208390Y0067091D01*
X0182140Y0067091D01*
D27*
X0111938Y0057799D03*
X0111938Y0054650D03*
X0111938Y0051500D03*
X0111938Y0048350D03*
X0111938Y0045201D03*
X0111938Y0042051D03*
X0111938Y0038902D03*
X0111938Y0035752D03*
X0080038Y0035752D03*
X0080038Y0038902D03*
X0080038Y0042051D03*
X0080038Y0045201D03*
X0080038Y0048350D03*
X0080038Y0051500D03*
X0080038Y0054650D03*
X0080038Y0057799D03*
D28*
X0084965Y0062726D03*
X0088114Y0062726D03*
X0091264Y0062726D03*
X0094413Y0062726D03*
X0097563Y0062726D03*
X0100713Y0062726D03*
X0103862Y0062726D03*
X0107012Y0062726D03*
X0107012Y0030826D03*
X0103862Y0030826D03*
X0100713Y0030826D03*
X0097563Y0030826D03*
X0094413Y0030826D03*
X0091264Y0030826D03*
X0088114Y0030826D03*
X0084965Y0030826D03*
D29*
X0147760Y0078272D03*
X0157760Y0078272D03*
X0167760Y0078272D03*
X0177760Y0078272D03*
X0187760Y0078272D03*
X0197760Y0078272D03*
M02*
